# Wavefront OBJ file
# Exported by Misfit Model 3D 1.3.8
# Thu Apr 06 21:41:19 2023

mtllib Advanced_Lifter_Arm.mtl

# 20 Vertices
v 1.787885 1.133946 0.133657
v -0.133379 0.211945 0.100657
v 0.010175 0.010945 -0.232343
v 0.125456 -0.199055 0.108657
v 2.041151 1.284945 -0.341343
v 1.766721 1.725946 -0.298343
v 2.856764 1.887946 1.831657
v 1.948652 1.902946 0.243657
v 2.765684 0.591945 0.114657
v 1.339735 0.989945 0.093657
v 3.070677 1.356945 1.570657
v 3.077772 1.365945 1.604657
v 2.732099 1.140945 0.710657
v 2.857176 0.966945 0.723657
v 2.857191 0.966945 0.723657
v 2.165174 1.167945 -0.231343
v 2.272978 0.842945 -0.476343
v 2.702207 0.884945 -0.176343
v 2.245832 1.689946 -0.030343
v 2.56825 0.444945 -0.431343

# 63 Texture Coordinates
vt 0.506348 0.020065
vt 0.166672 0.99025
vt 0.82695 0.98764
vt 0.396988 0.42392
vt 0.545822 0.023224
vt 0.545242 0.037765
vt 0.545242 0.037765
vt 0.545822 0.023224
vt 0.658081 0.427048
vt 0.658081 0.427048
vt 0.545822 0.023224
vt 0.396988 0.42392
vt 0.396988 0.42392
vt 0.545242 0.037765
vt 0.514374 0.793487
vt 0.396988 0.42392
vt 0.514374 0.793487
vt 0.19931 0.956101
vt 0.166672 0.99025
vt 0.533585 0.827652
vt 0.82695 0.98764
vt 0.506348 0.020065
vt 0.533585 0.827652
vt 0.166672 0.99025
vt 0.506348 0.020065
vt 0.82695 0.98764
vt 0.533585 0.827652
vt 0.545242 0.037765
vt 0.658081 0.427048
vt 0.805115 0.955994
vt 0.545242 0.037765
vt 0.805115 0.955994
vt 0.514374 0.793487
vt 0.658081 0.427048
vt 0.396988 0.42392
vt 0.19931 0.956101
vt 0.658081 0.427048
vt 0.19931 0.956101
vt 0.805115 0.955994
vt 0.19931 0.956101
vt 0.514374 0.793487
vt 0.805115 0.955994
vt 0.498016 -0.017365
vt 0.650971 -0.022644
vt 0.49881 0.746429
vt 0.650971 -0.022644
vt 0.349014 -0.022781
vt 0.49881 0.746429
vt 0.349014 -0.022781
vt 0.498016 -0.017365
vt 0.49881 0.746429
vt 0.633316 -0.012665
vt 0.223236 0.365021
vt 0.800156 0.359589
vt 0.223236 0.365021
vt 0.524902 0.311813
vt 0.800156 0.359589
vt 0.633316 -0.012665
vt 0.524902 0.311813
vt 0.223236 0.365021
vt 0.633316 -0.012665
vt 0.800156 0.359589
vt 0.524902 0.311813

# 63 Vertex Normals
vn -0.7504 -0.50818 0.422673
vn -0.7504 -0.50818 0.422673
vn -0.7504 -0.50818 0.422673
vn 0.090436 0.956983 -0.275691
vn 0.070335 0.960584 -0.268946
vn 0.084859 0.957975 -0.274013
vn 0.966093 -0.213491 -0.14521
vn 0.965993 -0.214156 -0.144895
vn 0.965749 -0.215805 -0.144075
vn -0.75171 -0.50954 0.41869
vn -0.751835 -0.509214 0.418862
vn -0.751866 -0.509243 0.418771
vn 0.090436 0.956983 -0.275691
vn 0.084859 0.957975 -0.274013
vn 0.270185 0.821157 -0.502695
vn 0.090436 0.956983 -0.275691
vn 0.270185 0.821157 -0.502695
vn 0.355262 0.710248 -0.607731
vn 0.358925 0.761769 -0.539333
vn 0.688349 0.481374 -0.542637
vn 0.791688 0.066256 -0.607322
vn 0.160685 0.974543 -0.156352
vn 0.358925 0.761769 -0.539333
vn 0.358925 0.761769 -0.539333
vn 0.926317 -0.255633 -0.276746
vn 0.791688 0.066256 -0.607322
vn 0.791688 0.066256 -0.607322
vn 0.966093 -0.213491 -0.14521
vn 0.965749 -0.215805 -0.144075
vn 0.91374 -0.046706 -0.403605
vn 0.966093 -0.213491 -0.14521
vn 0.91374 -0.046706 -0.403605
vn 0.844427 0.051901 -0.533151
vn -0.75171 -0.50954 0.41869
vn -0.751866 -0.509243 0.418771
vn -0.751647 -0.509703 0.418604
vn -0.75171 -0.50954 0.41869
vn -0.751647 -0.509703 0.418604
vn -0.751398 -0.510133 0.418528
vn 0.355262 0.710248 -0.607731
vn 0.560686 0.662511 -0.4967
vn 0.91374 -0.046706 -0.403605
vn -0.341331 0.732353 -0.589196
vn -0.341331 0.732353 -0.589196
vn -0.341331 0.732353 -0.589196
vn -0.020358 0.006639 0.999771
vn -0.020358 0.006639 0.999771
vn -0.020358 0.006639 0.999771
vn 0.519855 -0.637668 -0.568445
vn 0.519855 -0.637668 -0.568445
vn 0.519855 -0.637668 -0.568445
vn -0.050583 -0.128973 0.990357
vn -0.050583 -0.128973 0.990357
vn -0.050583 -0.128973 0.990357
vn 0.740184 0.504979 -0.443987
vn 0.208018 0.573395 -0.792431
vn 0.208018 0.573395 -0.792431
vn -0.338732 -0.130498 -0.931789
vn -0.338732 -0.130498 -0.931789
vn -0.164084 -0.628017 -0.760704
vn -0.338732 -0.130498 -0.931789
vn 0.208018 0.573395 -0.792431
vn 0.081454 0.13872 -0.986976

# arms, 21 grouped triangles

usemtl arms
o arms
g arms

f 7/1/1 6/2/2 5/3/3
f 13/4/4 12/5/5 11/6/6
f 11/7/7 12/8/8 14/9/9
f 15/10/10 12/11/11 13/12/12
f 13/13/13 11/14/14 18/15/15
f 13/16/16 18/17/17 17/18/18
f 6/19/19 19/20/20 5/21/21
f 7/22/22 19/23/23 6/24/24
f 7/25/25 5/26/26 19/27/27
f 11/28/28 14/29/29 20/30/30
f 11/31/31 20/32/32 18/33/33
f 15/34/34 13/35/35 17/36/36
f 15/37/37 17/38/38 20/39/39
f 17/40/40 18/41/41 20/42/42
f 3/43/43 2/44/44 1/45/45
f 2/46/46 4/47/47 1/48/48
f 4/49/49 3/50/50 1/51/51
f 10/52/52 9/53/53 8/54/54
f 9/55/55 16/56/56 8/57/57
f 10/58/58 16/59/59 9/60/60
f 10/61/61 8/62/62 16/63/63
