# Wavefront OBJ file
# Exported by Misfit Model 3D 1.3.8
# Wed Apr 05 17:29:42 2023

mtllib BabySpider_Body.mtl

# 18 Vertices
v -1.946014 0.714 1.452
v 1.946014 0.714 1.452
v 0.0 -1.649 -0.494
v -0.004227 -1.154 2.381
v -0.004227 -1.154 -0.087
v -0.885666 -0.272 0.639
v -0.885666 -0.272 2.381
v 0.877197 -0.272 2.381
v 0.877197 -0.272 0.639
v -0.004227 0.609 1.365
v -0.004227 0.609 2.381
v 0.0 1.649 -0.494
v 1.946014 0.714 -2.44
v -1.946014 0.714 -2.44
v -0.562424 -0.272 2.44
v -0.014481 0.275 2.44
v 0.533432 -0.272 2.44
v -0.014481 -0.82 2.44

# 60 Texture Coordinates
vt 0.5 0.499985
vt 0.770996 0.228989
vt 0.228989 0.228989
vt 0.228989 0.228989
vt 0.770996 0.228989
vt 0.5 0.5
vt 0.5 0.499985
vt 0.770996 0.770996
vt 0.770996 0.228989
vt 0.5 0.499985
vt 0.228989 0.770996
vt 0.770996 0.770996
vt 0.5 0.499985
vt 0.228989 0.228989
vt 0.228989 0.770996
vt 0.770996 0.228989
vt 0.770996 0.770996
vt 0.5 0.5
vt 0.770996 0.770996
vt 0.228989 0.770996
vt 0.5 0.5
vt 0.228989 0.770996
vt 0.228989 0.228989
vt 0.5 0.5
vt 0.75174 0.977432
vt 0.75174 0.216904
vt 0.999237 -0.09993
vt 0.75174 0.977432
vt 0.999237 -0.09993
vt 0.999237 0.977432
vt 0.999237 -0.09993
vt 0.24823 0.216904
vt 0.24823 0.977432
vt 0.999237 -0.09993
vt 0.24823 0.977432
vt 0.999237 0.977432
vt 0.500763 0.977432
vt 0.500763 0.533768
vt 0.75174 0.216904
vt 0.500763 0.977432
vt 0.75174 0.216904
vt 0.75174 0.977432
vt 0.500763 0.977432
vt 0.24823 0.977432
vt 0.24823 0.216904
vt 0.500763 0.977432
vt 0.24823 0.216904
vt 0.500763 0.533768
vt 0.999237 0.977432
vt 0.24823 0.977432
vt 0.500763 0.977432
vt 0.999237 0.977432
vt 0.500763 0.977432
vt 0.75174 0.977432
vt 0.0 1.0
vt 0.0 0.0
vt 1.0 0.0
vt 0.0 1.0
vt 0.0 0.0
vt 1.0 0.0

# 60 Vertex Normals
vn 0.0 -0.926947 0.375192
vn 0.460637 -0.7587 0.460638
vn -0.460637 -0.7587 0.460638
vn -0.227466 0.946846 0.227467
vn 0.227466 0.946846 0.227467
vn 0.0 1.0 -0.0
vn 0.375191 -0.926947 0.0
vn 0.460637 -0.7587 -0.460638
vn 0.460637 -0.7587 0.460638
vn 0.0 -0.926947 -0.375192
vn -0.460637 -0.7587 -0.460638
vn 0.460637 -0.7587 -0.460638
vn -0.375191 -0.926947 0.0
vn -0.460637 -0.7587 0.460638
vn -0.460637 -0.7587 -0.460638
vn 0.227466 0.946846 0.227467
vn 0.227466 0.946846 -0.227467
vn 0.0 1.0 -0.0
vn 0.227466 0.946846 -0.227467
vn -0.227466 0.946846 -0.227467
vn 0.0 1.0 -0.0
vn -0.227466 0.946846 -0.227467
vn -0.227466 0.946846 0.227467
vn 0.0 1.0 -0.0
vn -0.707332 -0.706882 0.0
vn -0.707332 -0.706882 0.0
vn -0.707332 -0.706882 0.0
vn -0.707332 -0.706882 0.0
vn -0.707332 -0.706882 0.0
vn -0.707332 -0.706882 0.0
vn 0.707338 -0.706876 0.0
vn 0.707338 -0.706876 0.0
vn 0.707338 -0.706876 0.0
vn 0.707338 -0.706876 0.0
vn 0.707338 -0.706876 0.0
vn 0.707338 -0.706876 -0.0
vn -0.706931 0.707283 0.0
vn -0.706931 0.707283 0.0
vn -0.706931 0.707283 0.0
vn -0.706931 0.707283 0.0
vn -0.706931 0.707283 0.0
vn -0.706931 0.707283 0.0
vn 0.706937 0.707277 0.0
vn 0.706937 0.707277 0.0
vn 0.706937 0.707277 0.0
vn 0.706937 0.707277 0.0
vn 0.706937 0.707277 0.0
vn 0.706937 0.707277 -0.0
vn 0.0 0.0 1.0
vn 0.0 0.0 1.0
vn 0.0 0.0 1.0
vn 0.0 0.0 1.0
vn 0.0 0.0 1.0
vn 0.0 0.0 1.0
vn 0.0 0.0 1.0
vn 0.0 0.0 1.0
vn 0.0 0.0 1.0
vn 0.0 0.0 1.0
vn 0.0 0.0 1.0
vn 0.0 0.0 1.0

# body, 8 grouped triangles

usemtl body
o body
g body

f 3/1/1 2/2/2 1/3/3
f 1/4/4 2/5/5 12/6/6
f 3/7/7 13/8/8 2/9/9
f 3/10/10 14/11/11 13/12/12
f 3/13/13 1/14/14 14/15/15
f 2/16/16 13/17/17 12/18/18
f 13/19/19 14/20/20 12/21/21
f 14/22/22 1/23/23 12/24/24
# gun, 10 grouped triangles

usemtl gun
o gun
g gun

f 7/25/25 6/26/26 5/27/27
f 7/28/28 5/29/29 4/30/30
f 5/31/31 9/32/32 8/33/33
f 5/34/34 8/35/35 4/36/36
f 11/37/37 10/38/38 6/39/39
f 11/40/40 6/41/41 7/42/42
f 11/43/43 8/44/44 9/45/45
f 11/46/46 9/47/47 10/48/48
f 4/49/49 8/50/50 11/51/51
f 4/52/52 11/53/53 7/54/54
# muzzle, 2 grouped triangles

usemtl muzzle
o muzzle
g muzzle

f 18/55/55 17/56/56 16/57/57
f 18/58/58 16/59/59 15/60/60
