# Wavefront OBJ file
# Exported by Misfit Model 3D 1.3.8
# Mon Apr 03 13:41:51 2023

mtllib Class_2_Drone.mtl

# 80 Vertices
v 1.769104 1.648 -0.114378
v 3.43631 -0.019 -0.114378
v 0.925873 -0.019 6.664622
v 0.101913 -0.019 -0.114378
v 1.769104 -1.686 -0.114378
v 1.769104 -1.045 -1.990378
v 0.743774 -0.019 -1.990378
v 2.794434 -0.019 -1.990378
v 1.769104 1.006 -1.990378
v 0.245148 -1.179 -1.293378
v 0.245148 -1.179 -0.902378
v 0.44075 -1.518 -0.902378
v 0.440704 -1.518 -1.293378
v 1.073349 -0.711 -0.902378
v 1.158829 -0.662 -1.293378
v 1.360413 -0.998 -0.902378
v 1.445892 -0.949 -1.293378
v -0.000748 -0.753 -0.434378
v 0.711578 -1.987 -0.434378
v -0.713074 -1.987 -0.434378
v 0.003464 -1.117 0.985622
v 0.402771 -1.809 0.985622
v -0.395813 -1.809 0.985622
v 0.007339 -1.32 0.994622
v 0.232727 -1.711 0.994622
v -0.218033 -1.711 0.994622
v 0.003464 -1.117 -0.419378
v 0.402771 -1.809 -0.419378
v -0.395813 -1.809 -0.419378
v 0.708832 -1.983 -1.831378
v -0.713074 -1.987 -1.831378
v -0.000748 -0.753 -2.335378
v -0.43988 -1.518 -0.902378
v -0.244278 -1.179 -0.902378
v -0.244278 -1.179 -1.293378
v -0.439835 -1.518 -1.293378
v -1.072479 -0.711 -0.902378
v -1.157959 -0.662 -1.293378
v -1.359543 -0.998 -0.902378
v -1.445023 -0.949 -1.293378
v 0.44075 1.49 -0.902378
v 0.245148 1.151 -0.902378
v 0.245148 1.151 -1.293378
v 0.440704 1.49 -1.293378
v 1.073349 0.682 -0.902378
v 1.158829 0.634 -1.293378
v 1.360413 0.97 -0.902378
v 1.445892 0.921 -1.293378
v -0.713074 1.959 -0.434378
v 0.711578 1.959 -0.434378
v -0.000748 0.725 -0.434378
v -0.395813 1.781 0.985622
v 0.402771 1.781 0.985622
v 0.003464 1.089 0.985622
v -0.218033 1.683 0.994622
v 0.232727 1.683 0.994622
v 0.007339 1.292 0.994622
v 0.003464 1.089 -0.419378
v 0.402771 1.781 -0.419378
v -0.395813 1.781 -0.419378
v -0.713074 1.959 -1.831378
v 0.708832 1.955 -1.831378
v -0.000748 0.725 -2.335378
v -0.244278 1.151 -1.293378
v -0.244278 1.151 -0.902378
v -0.43988 1.49 -0.902378
v -0.439835 1.49 -1.293378
v -1.072479 0.682 -0.902378
v -1.157959 0.634 -1.293378
v -1.359543 0.97 -0.902378
v -1.445023 0.921 -1.293378
v -0.924988 -0.019 6.664622
v -3.43541 -0.019 -0.114378
v -1.768219 1.648 -0.114378
v -0.101028 -0.019 -0.114378
v -1.768219 -1.686 -0.114378
v -1.768219 -1.045 -1.989378
v -0.742905 -0.019 -1.989378
v -2.793533 -0.019 -1.989378
v -1.768219 1.006 -1.989378

# 324 Texture Coordinates
vt 0.425323 0.998962
vt 0.081573 0.998962
vt 0.743057 0.998962
vt 0.081573 0.115463
vt 0.743057 0.115463
vt 0.743057 0.998962
vt 0.081573 0.115463
vt 0.743057 0.998962
vt 0.081573 0.998962
vt 0.743057 0.115463
vt 0.425323 0.115463
vt 0.425323 0.998962
vt 0.743057 0.115463
vt 0.425323 0.998962
vt 0.743057 0.998962
vt 0.425323 0.115463
vt 0.081573 0.115463
vt 0.081573 0.998962
vt 0.425323 0.115463
vt 0.081573 0.998962
vt 0.425323 0.998962
vt 0.743057 0.998962
vt 0.081573 0.998962
vt 0.425323 0.998962
vt 0.081573 0.115463
vt 0.081573 0.998962
vt 0.743057 0.998962
vt 0.081573 0.115463
vt 0.743057 0.998962
vt 0.743057 0.115463
vt 0.743057 0.115463
vt 0.743057 0.998962
vt 0.425323 0.998962
vt 0.743057 0.115463
vt 0.425323 0.998962
vt 0.425323 0.115463
vt 0.425323 0.115463
vt 0.425323 0.998962
vt 0.081573 0.998962
vt 0.425323 0.115463
vt 0.081573 0.998962
vt 0.081573 0.115463
vt 0.499985 0.991211
vt 0.0 0.991211
vt 0.0 0.34288
vt 0.499985 0.991211
vt 0.0 0.34288
vt 0.5 0.34288
vt 0.0 0.34288
vt 0.0 0.991211
vt 1.5 0.991211
vt 0.0 0.34288
vt 1.5 0.991211
vt 1.5 0.34288
vt 1.5 0.991211
vt 1.0 0.991211
vt 1.0 0.34288
vt 1.5 0.991211
vt 1.0 0.34288
vt 1.5 0.34288
vt 1.0 0.991211
vt 0.499985 0.991211
vt 0.5 0.34288
vt 1.0 0.991211
vt 0.5 0.34288
vt 1.0 0.34288
vt 1.740753 0.092377
vt 0.240585 0.166
vt 0.759018 0.233704
vt 1.740753 0.092377
vt 0.759018 0.233704
vt 1.258896 0.160095
vt 1.740753 0.092377
vt 1.258896 0.160095
vt 0.759018 0.233704
vt 1.740753 0.092377
vt 0.759018 0.233704
vt 0.240585 0.166
vt 1.740753 0.092377
vt 1.258896 0.160095
vt 0.759018 0.233704
vt 1.740753 0.092377
vt 0.759018 0.233704
vt 0.240585 0.166
vt 1.740753 0.092377
vt 0.240585 0.166
vt 0.759018 0.233704
vt 1.740753 0.092377
vt 0.759018 0.233704
vt 1.258896 0.160095
vt 0.499985 0.991211
vt 0.5 0.34288
vt 0.0 0.34288
vt 0.499985 0.991211
vt 0.0 0.34288
vt 0.0 0.991211
vt 0.0 0.34288
vt 1.5 0.34288
vt 1.5 0.991211
vt 0.0 0.34288
vt 1.5 0.991211
vt 0.0 0.991211
vt 1.5 0.991211
vt 1.5 0.34288
vt 1.0 0.34288
vt 1.5 0.991211
vt 1.0 0.34288
vt 1.0 0.991211
vt 1.0 0.991211
vt 1.0 0.34288
vt 0.5 0.34288
vt 1.0 0.991211
vt 0.5 0.34288
vt 0.499985 0.991211
vt 0.359024 -0.193054
vt 0.767181 1.181091
vt 0.255691 1.188553
vt -0.053167 -0.332781
vt 0.946755 0.1781
vt 0.435874 1.178022
vt 0.55336 1.723221
vt 0.203262 0.122223
vt 0.780243 0.052307
vt 1.744675 0.888565
vt 1.25531 0.888519
vt 0.755493 0.889694
vt 1.744675 0.888565
vt 0.755493 0.889694
vt 0.244492 0.889694
vt 0.240585 0.166
vt 0.244492 0.889694
vt 0.755493 0.889694
vt 0.240585 0.166
vt 0.755493 0.889694
vt 0.759018 0.233704
vt 1.25531 0.888519
vt 1.258896 0.160095
vt 0.759018 0.233704
vt 1.25531 0.888519
vt 0.759018 0.233704
vt 0.755493 0.889694
vt 1.740753 0.092377
vt 1.744675 0.888565
vt 0.244492 0.889694
vt 1.740753 0.092377
vt 0.244492 0.889694
vt 0.240585 0.166
vt 1.744675 0.888565
vt 1.740753 0.092377
vt 1.258896 0.160095
vt 1.744675 0.888565
vt 1.258896 0.160095
vt 1.25531 0.888519
vt 0.688522 0.096832
vt 1.311462 0.096832
vt 0.0 0.096832
vt 0.688522 0.096832
vt 0.688522 0.689346
vt 1.312027 0.689407
vt 1.311462 0.096832
vt 0.688522 0.096832
vt 1.312027 0.689407
vt -0.574905 0.78569
vt 0.574509 0.787399
vt -0.000916 0.212692
vt 1.312027 0.689407
vt 1.999985 0.903153
vt 0.0 0.096832
vt 1.312027 0.689407
vt 0.0 0.096832
vt 1.311462 0.096832
vt 1.999985 0.903153
vt 0.688522 0.689346
vt 0.688522 0.096832
vt 1.999985 0.903153
vt 0.688522 0.096832
vt 0.0 0.096832
vt 1.744675 0.888565
vt 0.244492 0.889694
vt 0.755493 0.889694
vt 1.744675 0.888565
vt 0.755493 0.889694
vt 1.25531 0.888519
vt 0.240585 0.166
vt 0.759018 0.233704
vt 0.755493 0.889694
vt 0.240585 0.166
vt 0.755493 0.889694
vt 0.244492 0.889694
vt 1.25531 0.888519
vt 0.755493 0.889694
vt 0.759018 0.233704
vt 1.25531 0.888519
vt 0.759018 0.233704
vt 1.258896 0.160095
vt 1.740753 0.092377
vt 0.240585 0.166
vt 0.244492 0.889694
vt 1.740753 0.092377
vt 0.244492 0.889694
vt 1.744675 0.888565
vt 1.744675 0.888565
vt 1.25531 0.888519
vt 1.258896 0.160095
vt 1.744675 0.888565
vt 1.258896 0.160095
vt 1.740753 0.092377
vt 1.744675 0.888565
vt 0.244492 0.889694
vt 0.755493 0.889694
vt 1.744675 0.888565
vt 0.755493 0.889694
vt 1.25531 0.888519
vt 0.240585 0.166
vt 0.759018 0.233704
vt 0.755493 0.889694
vt 0.240585 0.166
vt 0.755493 0.889694
vt 0.244492 0.889694
vt 1.25531 0.888519
vt 0.755493 0.889694
vt 0.759018 0.233704
vt 1.25531 0.888519
vt 0.759018 0.233704
vt 1.258896 0.160095
vt 1.740753 0.092377
vt 0.240585 0.166
vt 0.244492 0.889694
vt 1.740753 0.092377
vt 0.244492 0.889694
vt 1.744675 0.888565
vt 1.744675 0.888565
vt 1.25531 0.888519
vt 1.258896 0.160095
vt 1.744675 0.888565
vt 1.258896 0.160095
vt 1.740753 0.092377
vt 0.0 0.096832
vt 1.311462 0.096832
vt 0.688522 0.096832
vt 1.312027 0.689407
vt 0.688522 0.689346
vt 0.688522 0.096832
vt 1.312027 0.689407
vt 0.688522 0.096832
vt 1.311462 0.096832
vt -0.000916 0.212692
vt 0.574509 0.787399
vt -0.574905 0.78569
vt 1.312027 0.689407
vt 1.311462 0.096832
vt 0.0 0.096832
vt 1.312027 0.689407
vt 0.0 0.096832
vt 1.999985 0.903153
vt 1.999985 0.903153
vt 0.0 0.096832
vt 0.688522 0.096832
vt 1.999985 0.903153
vt 0.688522 0.096832
vt 0.688522 0.689346
vt 1.744675 0.888565
vt 1.25531 0.888519
vt 0.755493 0.889694
vt 1.744675 0.888565
vt 0.755493 0.889694
vt 0.244492 0.889694
vt 0.240585 0.166
vt 0.244492 0.889694
vt 0.755493 0.889694
vt 0.240585 0.166
vt 0.755493 0.889694
vt 0.759018 0.233704
vt 1.25531 0.888519
vt 1.258896 0.160095
vt 0.759018 0.233704
vt 1.25531 0.888519
vt 0.759018 0.233704
vt 0.755493 0.889694
vt 1.740753 0.092377
vt 1.744675 0.888565
vt 0.244492 0.889694
vt 1.740753 0.092377
vt 0.244492 0.889694
vt 0.240585 0.166
vt 1.744675 0.888565
vt 1.740753 0.092377
vt 1.258896 0.160095
vt 1.744675 0.888565
vt 1.258896 0.160095
vt 1.25531 0.888519
vt 0.255691 1.188553
vt 0.767181 1.181091
vt 0.359024 -0.193054
vt 0.389779 1.180655
vt 0.002306 0.047986
vt 1.134975 -0.339486
vt 0.780243 0.052307
vt 0.203262 0.122223
vt 0.55336 1.723221
vt 0.501083 1.058746
vt 0.155395 -0.044327
vt 0.936981 -0.006531
vt 0.936981 -0.006531
vt 0.155395 -0.044327
vt 0.501083 1.058746
vt 0.0 1.0
vt 0.0 0.0
vt 1.0 0.0
vt 0.0 1.0
vt 0.0 0.0
vt 1.0 0.0
vt 0.0 1.0
vt 0.0 0.0
vt 1.0 0.0
vt 0.0 1.0
vt 0.0 0.0
vt 1.0 0.0
vt 0.0 1.0
vt 0.0 0.0
vt 1.0 0.0
vt 0.0 1.0
vt 0.0 0.0
vt 1.0 0.0

# 324 Vertex Normals
vn 0.0 0.0 1.0
vn 0.0 0.0 1.0
vn 0.0 0.0 1.0
vn 0.866144 0.499794 -0.0
vn 0.866144 0.499794 -0.0
vn 0.866144 0.499794 -0.0
vn 0.866144 0.499794 -0.0
vn 0.866144 0.499794 -0.0
vn 0.866144 0.499794 -0.0
vn -0.866161 0.499766 0.0
vn -0.866161 0.499766 0.0
vn -0.866161 0.499766 0.0
vn -0.866161 0.499766 0.0
vn -0.866161 0.499766 0.0
vn -0.866161 0.499766 0.0
vn 0.0 -1.0 0.0
vn 0.0 -1.0 0.0
vn 0.0 -1.0 0.0
vn 0.0 -1.0 0.0
vn 0.0 -1.0 0.0
vn -0.0 -1.0 0.0
vn 0.0 -0.0 1.0
vn 0.0 -0.0 1.0
vn 0.0 -0.0 1.0
vn 0.866144 -0.499794 -0.0
vn 0.866144 -0.499794 -0.0
vn 0.866144 -0.499794 -0.0
vn 0.866144 -0.499794 -0.0
vn 0.866144 -0.499794 -0.0
vn 0.866144 -0.499794 0.0
vn -0.866161 -0.499766 -0.0
vn -0.866161 -0.499766 0.0
vn -0.866161 -0.499766 -0.0
vn -0.866161 -0.499766 -0.0
vn -0.866161 -0.499766 -0.0
vn -0.866161 -0.499766 -0.0
vn 0.0 1.0 0.0
vn 0.0 1.0 0.0
vn 0.0 1.0 0.0
vn 0.0 1.0 0.0
vn 0.0 1.0 0.0
vn 0.0 1.0 0.0
vn -0.746444 -0.248711 -0.617223
vn -0.0 -0.486254 -0.873817
vn -0.194253 -0.952254 -0.23554
vn -0.746444 -0.248711 -0.617223
vn -0.194253 -0.952254 -0.23554
vn -0.975784 -0.006056 -0.218654
vn 0.19175 -0.962388 -0.192459
vn -0.0 -0.486254 -0.873817
vn 0.817013 0.000076 -0.576619
vn 0.19175 -0.962388 -0.192459
vn 0.817013 0.000076 -0.576619
vn 0.944257 -0.313802 -0.09953
vn 0.817013 0.000076 -0.576619
vn -0.198025 0.59417 -0.779582
vn 0.441951 0.885115 -0.145777
vn 0.817013 0.000076 -0.576619
vn 0.441951 0.885115 -0.145777
vn 0.944257 0.313802 -0.09953
vn -0.198025 0.59417 -0.779582
vn -0.746444 -0.248711 -0.617223
vn -0.875903 0.440762 -0.196272
vn -0.198025 0.59417 -0.779582
vn -0.875903 0.440762 -0.196272
vn -0.006104 0.975782 -0.218662
vn 0.687005 0.687157 0.236306
vn -0.121016 0.987922 0.096778
vn 0.255272 0.649703 0.716046
vn 0.687005 0.687157 0.236306
vn 0.255272 0.649703 0.716046
vn 0.4369 0.436997 0.786227
vn -0.687004 0.687157 0.236306
vn -0.436899 0.436997 0.786227
vn -0.255271 0.649703 0.716047
vn -0.687004 0.687157 0.236306
vn -0.255271 0.649703 0.716047
vn 0.121016 0.987922 0.096778
vn 0.687735 -0.686692 0.235528
vn 0.437629 -0.436206 0.78626
vn 0.25573 -0.649981 0.715631
vn 0.687735 -0.686692 0.235528
vn 0.25573 -0.649981 0.715631
vn -0.121249 -0.988054 0.095122
vn -0.687735 -0.686693 0.235529
vn 0.121249 -0.988054 0.095122
vn -0.25573 -0.649981 0.715631
vn -0.687735 -0.686693 0.235529
vn -0.25573 -0.649981 0.715631
vn -0.437628 -0.436206 0.78626
vn 0.746375 -0.248688 -0.617315
vn 0.975755 -0.006065 -0.218781
vn 0.19425 -0.952222 -0.23567
vn 0.746375 -0.248688 -0.617315
vn 0.19425 -0.952222 -0.23567
vn -0.0 -0.486205 -0.873845
vn -0.191753 -0.962361 -0.192593
vn -0.944246 -0.313802 -0.09964
vn -0.81694 0.000076 -0.576722
vn -0.191753 -0.962361 -0.192593
vn -0.81694 0.000076 -0.576722
vn -0.0 -0.486205 -0.873845
vn -0.81694 0.000076 -0.576722
vn -0.944246 0.313802 -0.09964
vn -0.441951 0.885096 -0.145892
vn -0.81694 0.000076 -0.576722
vn -0.441951 0.885096 -0.145892
vn 0.198005 0.594109 -0.779633
vn 0.198005 0.594109 -0.779633
vn 0.006108 0.975754 -0.218786
vn 0.875882 0.440752 -0.196388
vn 0.198005 0.594109 -0.779633
vn 0.875882 0.440752 -0.196388
vn 0.746375 -0.248688 -0.617315
vn -0.014317 0.971383 0.237088
vn -0.322308 0.945455 0.047238
vn -0.701067 0.701195 -0.129732
vn 0.43973 -0.897123 -0.042529
vn 0.941018 -0.314699 0.124295
vn 0.584799 -0.620945 0.521956
vn -0.014317 -0.971383 0.237088
vn -0.705035 -0.705116 -0.075741
vn -0.450357 -0.891847 -0.042278
vn -0.866183 -0.499727 0.000051
vn -0.866157 -0.499771 0.000101
vn -0.866183 -0.499727 0.000051
vn -0.866183 -0.499727 0.000051
vn -0.866183 -0.499727 0.000051
vn -0.866208 -0.499683 0.0
vn -0.121016 0.987922 0.096778
vn -0.49247 0.87033 0.0
vn -0.492218 0.870472 0.000776
vn -0.121016 0.987922 0.096778
vn -0.492218 0.870472 0.000776
vn 0.358823 0.913257 0.192894
vn 0.0 0.0 1.0
vn 0.4369 0.436997 0.786227
vn 0.4369 0.436996 0.786227
vn 0.0 0.0 1.0
vn 0.4369 0.436996 0.786227
vn 0.0 -0.0 1.0
vn 0.0 -0.0 -1.0
vn 0.0 -0.0 -1.0
vn 0.0 -0.0 -1.0
vn 0.0 -0.0 -1.0
vn 0.0 -0.0 -1.0
vn 0.0 -0.0 -1.0
vn 0.492404 -0.870366 -0.000712
vn 0.492615 -0.870246 -0.001365
vn 0.492404 -0.870366 -0.000712
vn 0.492404 -0.870366 -0.000712
vn 0.492404 -0.870366 -0.000712
vn 0.492194 -0.870486 -0.000058
vn 0.0 -0.0 1.0
vn 0.0 -0.0 1.0
vn 0.0 -0.0 1.0
vn 0.001407 -0.999998 -0.001432
vn 0.002336 -0.830248 -0.557389
vn 0.001519 -0.931555 -0.363598
vn -0.0 -0.999996 -0.002863
vn 0.001407 -0.999998 -0.001432
vn 0.001519 -0.931555 -0.363598
vn 0.001519 -0.931555 -0.363598
vn 0.002336 -0.830248 -0.557389
vn 0.001065 -0.378634 -0.925546
vn 0.86613 0.499819 -0.000136
vn 0.866197 0.499703 0.0
vn 0.86613 0.499819 -0.000136
vn 0.86613 0.499819 -0.000136
vn 0.86613 0.499819 -0.000136
vn 0.866063 0.499935 -0.000271
vn -0.866063 0.499935 -0.0
vn -0.866063 0.499935 -0.0
vn -0.866063 0.499935 -0.0
vn -0.866063 0.499935 -0.0
vn -0.866063 0.499935 -0.0
vn -0.866063 0.499935 -0.0
vn 0.866183 -0.499727 0.000051
vn 0.866208 -0.499684 -0.0
vn 0.866183 -0.499727 0.000051
vn 0.866183 -0.499727 0.000051
vn 0.866183 -0.499727 0.000051
vn 0.866157 -0.499771 0.000101
vn 0.121016 0.987922 0.096778
vn -0.358823 0.913257 0.192895
vn 0.492218 0.870471 0.000776
vn 0.121016 0.987922 0.096778
vn 0.492218 0.870471 0.000776
vn 0.49247 0.870329 0.0
vn 0.0 0.0 1.0
vn 0.0 0.0 1.0
vn -0.436899 0.436996 0.786227
vn 0.0 0.0 1.0
vn -0.436899 0.436996 0.786227
vn -0.436899 0.436997 0.786227
vn 0.0 0.0 -1.0
vn 0.0 -0.0 -1.0
vn 0.0 0.0 -1.0
vn 0.0 0.0 -1.0
vn 0.0 0.0 -1.0
vn 0.0 0.0 -1.0
vn -0.492404 -0.870366 -0.000711
vn -0.492194 -0.870485 -0.000058
vn -0.492404 -0.870366 -0.000711
vn -0.492404 -0.870366 -0.000711
vn -0.492404 -0.870366 -0.000711
vn -0.492614 -0.870247 -0.001364
vn -0.866183 0.499727 0.000051
vn -0.866208 0.499683 -0.0
vn -0.866183 0.499727 0.000051
vn -0.866183 0.499727 0.000051
vn -0.866183 0.499727 0.000051
vn -0.866157 0.499771 0.000101
vn -0.121249 -0.988054 0.095122
vn 0.359355 -0.913361 0.191402
vn -0.492616 -0.870247 -0.000452
vn -0.121249 -0.988054 0.095122
vn -0.492616 -0.870247 -0.000452
vn -0.49247 -0.87033 -0.0
vn 0.0 -0.0 1.0
vn 0.0 -0.0 1.0
vn 0.437502 -0.436838 0.78598
vn 0.0 -0.0 1.0
vn 0.437502 -0.436838 0.78598
vn 0.437629 -0.436206 0.78626
vn 0.0 -0.0 -1.0
vn 0.0 -0.0 -1.0
vn 0.0 -0.0 -1.0
vn 0.0 -0.0 -1.0
vn 0.0 -0.0 -1.0
vn 0.0 -0.0 -1.0
vn 0.492404 0.870366 -0.000712
vn 0.492194 0.870486 -0.000058
vn 0.492404 0.870366 -0.000712
vn 0.492404 0.870366 -0.000712
vn 0.492404 0.870366 -0.000712
vn 0.492615 0.870246 -0.001365
vn 0.0 -0.0 1.0
vn 0.0 -0.0 1.0
vn 0.0 -0.0 1.0
vn 0.001519 0.931555 -0.363598
vn 0.002336 0.830248 -0.557389
vn 0.001407 0.999998 -0.001432
vn 0.001519 0.931555 -0.363598
vn 0.001407 0.999998 -0.001432
vn 0.0 0.999996 -0.002863
vn 0.001065 0.378634 -0.925546
vn 0.002336 0.830248 -0.557389
vn 0.001519 0.931555 -0.363598
vn 0.86613 -0.499819 -0.000136
vn 0.866063 -0.499935 -0.000271
vn 0.86613 -0.499819 -0.000136
vn 0.86613 -0.499819 -0.000136
vn 0.86613 -0.499819 -0.000136
vn 0.866197 -0.499703 -0.0
vn -0.866063 -0.499935 0.0
vn -0.866063 -0.499935 -0.0
vn -0.866063 -0.499935 0.0
vn -0.866063 -0.499935 0.0
vn -0.866063 -0.499935 0.0
vn -0.866063 -0.499935 0.0
vn 0.866183 0.499727 0.000051
vn 0.866157 0.499771 0.000101
vn 0.866183 0.499727 0.000051
vn 0.866183 0.499727 0.000051
vn 0.866183 0.499727 0.000051
vn 0.866208 0.499684 0.0
vn 0.121249 -0.988054 0.095122
vn 0.49247 -0.870329 -0.0
vn 0.492616 -0.870246 -0.000452
vn 0.121249 -0.988054 0.095122
vn 0.492616 -0.870246 -0.000452
vn -0.359355 -0.913362 0.191402
vn 0.0 0.0 1.0
vn -0.437628 -0.436206 0.78626
vn -0.437501 -0.436839 0.78598
vn 0.0 0.0 1.0
vn -0.437501 -0.436839 0.78598
vn 0.0 0.0 1.0
vn 0.0 0.0 -1.0
vn 0.0 0.0 -1.0
vn 0.0 0.0 -1.0
vn 0.0 0.0 -1.0
vn 0.0 0.0 -1.0
vn 0.0 0.0 -1.0
vn -0.492404 0.870366 -0.000711
vn -0.492614 0.870247 -0.001364
vn -0.492404 0.870366 -0.000711
vn -0.492404 0.870366 -0.000711
vn -0.492404 0.870366 -0.000711
vn -0.492194 0.870485 -0.000058
vn 0.701061 0.701186 -0.129816
vn 0.322303 0.94546 0.047184
vn 0.014314 0.971382 0.237089
vn -0.584803 -0.620943 0.521954
vn -0.941027 -0.314693 0.124242
vn -0.439727 -0.89712 -0.042607
vn 0.450352 -0.891846 -0.042356
vn 0.705032 -0.705113 -0.075805
vn 0.014314 -0.971383 0.237089
vn 0.584799 0.620945 0.521956
vn 0.941018 0.314699 0.124295
vn 0.439586 0.897186 -0.042676
vn -0.439584 0.897184 -0.042754
vn -0.941027 0.314693 0.124242
vn -0.584803 0.620943 0.521954
vn -0.198025 0.59417 -0.779582
vn 0.817013 0.000076 -0.576619
vn -0.0 -0.486254 -0.873817
vn -0.198025 0.59417 -0.779582
vn -0.0 -0.486254 -0.873817
vn -0.746444 -0.248711 -0.617223
vn 0.198005 0.594109 -0.779633
vn 0.746375 -0.248688 -0.617315
vn -0.0 -0.486205 -0.873845
vn 0.198005 0.594109 -0.779633
vn -0.0 -0.486205 -0.873845
vn -0.81694 0.000076 -0.576722
vn 0.0 -0.0 1.0
vn 0.0 -0.0 1.0
vn 0.0 -0.0 1.0
vn 0.0 0.0 1.0
vn 0.0 0.0 1.0
vn 0.0 0.0 1.0

# body, 70 grouped triangles

usemtl body
o body
g body

f 17/67/67 15/68/68 14/69/69
f 17/70/70 14/71/71 16/72/72
f 40/73/73 39/74/74 37/75/75
f 40/76/76 37/77/77 38/78/78
f 48/79/79 47/80/80 45/81/81
f 48/82/82 45/83/83 46/84/84
f 71/85/85 69/86/86 68/87/87
f 71/88/88 68/89/89 70/90/90
f 3/115/115 1/116/116 4/117/117
f 3/121/121 4/122/122 5/123/123
f 13/124/124 12/125/125 11/126/126
f 13/127/127 11/128/128 10/129/129
f 15/130/130 10/131/131 11/132/132
f 15/133/133 11/134/134 14/135/135
f 12/136/136 16/137/137 14/138/138
f 12/139/139 14/140/140 11/141/141
f 17/142/142 13/143/143 10/144/144
f 17/145/145 10/146/146 15/147/147
f 13/148/148 17/149/149 16/150/150
f 13/151/151 16/152/152 12/153/153
f 20/154/154 19/155/155 18/156/156
f 20/157/157 31/158/158 30/159/159
f 19/160/160 20/161/161 30/162/162
f 30/163/163 31/164/164 32/165/165
f 30/166/166 32/167/167 18/168/168
f 30/169/169 18/170/170 19/171/171
f 32/172/172 31/173/173 20/174/174
f 32/175/175 20/176/176 18/177/177
f 36/178/178 35/179/179 34/180/180
f 36/181/181 34/182/182 33/183/183
f 38/184/184 37/185/185 34/186/186
f 38/187/187 34/188/188 35/189/189
f 33/190/190 34/191/191 37/192/192
f 33/193/193 37/194/194 39/195/195
f 40/196/196 38/197/197 35/198/198
f 40/199/199 35/200/200 36/201/201
f 36/202/202 33/203/203 39/204/204
f 36/205/205 39/206/206 40/207/207
f 44/208/208 43/209/209 42/210/210
f 44/211/211 42/212/212 41/213/213
f 46/214/214 45/215/215 42/216/216
f 46/217/217 42/218/218 43/219/219
f 41/220/220 42/221/221 45/222/222
f 41/223/223 45/224/224 47/225/225
f 48/226/226 46/227/227 43/228/228
f 48/229/229 43/230/230 44/231/231
f 44/232/232 41/233/233 47/234/234
f 44/235/235 47/236/236 48/237/237
f 51/238/238 50/239/239 49/240/240
f 62/241/241 61/242/242 49/243/243
f 62/244/244 49/245/245 50/246/246
f 63/247/247 61/248/248 62/249/249
f 62/250/250 50/251/251 51/252/252
f 62/253/253 51/254/254 63/255/255
f 63/256/256 51/257/257 49/258/258
f 63/259/259 49/260/260 61/261/261
f 67/262/262 66/263/263 65/264/264
f 67/265/265 65/266/266 64/267/267
f 69/268/268 64/269/269 65/270/270
f 69/271/271 65/272/272 68/273/273
f 66/274/274 70/275/275 68/276/276
f 66/277/277 68/278/278 65/279/279
f 71/280/280 67/281/281 64/282/282
f 71/283/283 64/284/284 69/285/285
f 67/286/286 71/287/287 70/288/288
f 67/289/289 70/290/290 66/291/291
f 75/292/292 74/293/293 72/294/294
f 76/298/298 75/299/299 72/300/300
f 3/301/301 2/302/302 1/303/303
f 74/304/304 73/305/305 72/306/306
# lefteye, 1 grouped triangles

usemtl eyes
o lefteye
g lefteye

f 5/118/118 2/119/119 3/120/120
# guns, 14 grouped triangles

usemtl guns
o guns
g guns

f 23/1/1 22/2/2 21/3/3
f 28/4/4 27/5/5 21/6/6
f 28/7/7 21/8/8 22/9/9
f 27/10/10 29/11/11 23/12/12
f 27/13/13 23/14/14 21/15/15
f 29/16/16 28/17/17 22/18/18
f 29/19/19 22/20/20 23/21/21
f 54/22/22 53/23/23 52/24/24
f 59/25/25 53/26/26 54/27/27
f 59/28/28 54/29/29 58/30/30
f 58/31/31 54/32/32 52/33/33
f 58/34/34 52/35/35 60/36/36
f 60/37/37 52/38/38 53/39/39
f 60/40/40 53/41/41 59/42/42
# muzzle, 2 grouped triangles

usemtl muzzle
o muzzle
g muzzle

f 26/319/319 25/320/320 24/321/321
f 57/322/322 56/323/323 55/324/324
# righteye, 1 grouped triangles

usemtl eyes
o righteye
g righteye

f 72/295/295 73/296/296 76/297/297
# back, 16 grouped triangles

usemtl back
o back
g back

f 7/43/43 6/44/44 5/45/45
f 7/46/46 5/47/47 4/48/48
f 5/49/49 6/50/50 8/51/51
f 5/52/52 8/53/53 2/54/54
f 8/55/55 9/56/56 1/57/57
f 8/58/58 1/59/59 2/60/60
f 9/61/61 7/62/62 4/63/63
f 9/64/64 4/65/65 1/66/66
f 78/91/91 75/92/92 76/93/93
f 78/94/94 76/95/95 77/96/96
f 76/97/97 73/98/98 79/99/99
f 76/100/100 79/101/101 77/102/102
f 79/103/103 73/104/104 74/105/105
f 79/106/106 74/107/107 80/108/108
f 80/109/109 74/110/110 75/111/111
f 80/112/112 75/113/113 78/114/114
# thrusters, 4 grouped triangles

usemtl thrusters
o thrusters
g thrusters

f 9/307/307 8/308/308 6/309/309
f 9/310/310 6/311/311 7/312/312
f 80/313/313 78/314/314 77/315/315
f 80/316/316 77/317/317 79/318/318
