# Wavefront OBJ file
# Exported by Misfit Model 3D 1.3.8
# Sun Apr 02 16:38:23 2023

mtllib Light_Hulk.mtl

# 89 Vertices
v 1.043869 0.545 -2.092
v 1.043869 0.533 1.449
v 2.272079 1.396 1.095
v 1.194412 0.472 1.049
v 1.194412 0.52 -1.873
v 2.670227 1.543 -1.873
v 2.670227 1.546 1.049
v 1.902115 0.464 1.549
v 2.670227 0.464 1.549
v 2.670227 0.521 -1.965
v -1.064972 0.545 -2.092
v -1.064972 0.533 1.449
v 1.433868 2.313 -1.138
v -1.454956 2.313 -1.138
v -0.010544 1.085 2.092
v 1.433868 2.564 0.594
v -2.293182 1.396 1.095
v 1.194412 -0.533 2.009
v 0.165329 -0.533 2.009
v -0.327896 -0.169 1.661
v -1.194412 0.472 1.049
v 0.492706 -0.705 -2.076
v 1.194412 -0.705 -2.076
v -1.194412 0.52 -1.873
v 2.670227 -0.705 -2.076
v 2.670227 -0.533 2.009
v -1.454956 2.564 0.594
v -2.670227 -0.533 2.009
v -2.670227 1.546 1.049
v -1.194412 -0.705 -2.076
v -1.194412 -0.533 2.009
v -2.670227 1.543 -1.873
v -2.670227 -0.705 -2.076
v -1.194412 -2.564 -0.514
v 1.194412 -2.564 -0.514
v -1.55748 1.364 1.42
v -1.55748 2.093 0.928
v -0.994659 2.093 1.122
v -0.283325 1.364 1.86
v 0.262222 1.364 1.86
v 0.973557 2.093 1.122
v 1.558197 2.093 0.92
v 1.558197 1.364 1.413
v -2.733643 -1.452 0.773
v -4.180298 -1.452 0.773
v -3.858826 0.364 0.395
v -2.733643 1.474 0.395
v -2.733643 -1.452 -1.28
v -2.733643 1.474 -1.658
v -3.858826 0.364 -1.658
v -4.180298 -1.452 -1.28
v -4.080078 -1.714 2.821
v -3.544647 -2.663 2.821
v -3.544647 -2.663 1.787
v -4.080078 -1.714 1.787
v -3.009216 -1.714 2.821
v -3.009216 -1.714 1.787
v -3.544449 -2.836 -1.114
v -4.499634 -1.459 -0.542
v -4.499634 -1.459 1.764
v -2.589264 -1.459 1.764
v -3.544449 -3.153 1.764
v -2.589264 -1.459 -0.542
v -3.243973 -1.858 2.835
v -3.546188 -2.394 2.835
v -3.848404 -1.858 2.835
v 3.859528 0.364 0.395
v 4.181015 -1.452 0.773
v 2.734344 -1.452 0.773
v 2.734344 1.474 0.395
v 3.859528 0.364 -1.658
v 2.734344 1.474 -1.658
v 2.734344 -1.452 -1.28
v 4.181015 -1.452 -1.28
v 3.545349 -2.663 1.787
v 3.545349 -2.663 2.821
v 4.08078 -1.714 2.821
v 4.08078 -1.714 1.787
v 3.009918 -1.714 2.821
v 3.009918 -1.714 1.787
v 4.500336 -1.459 1.764
v 4.500336 -1.459 -0.542
v 3.545151 -2.836 -1.114
v 3.545151 -3.153 1.764
v 2.589966 -1.459 1.764
v 2.589966 -1.459 -0.542
v 3.849106 -1.858 2.835
v 3.54689 -2.394 2.835
v 3.244675 -1.858 2.835

# 372 Texture Coordinates
vt 0.345093 0.025635
vt 0.000046 0.025635
vt 0.000046 0.999115
vt 0.345093 0.025635
vt 0.000046 0.999115
vt 0.345093 0.999115
vt 0.654831 0.025635
vt 0.345093 0.025635
vt 0.345093 0.999115
vt 0.654831 0.025635
vt 0.345093 0.999115
vt 0.654831 0.999115
vt 0.000046 0.025635
vt 0.654831 0.025635
vt 0.654831 0.999115
vt 0.000046 0.025635
vt 0.654831 0.999115
vt 0.000046 0.999115
vt 0.345093 0.999115
vt 0.000046 0.999115
vt 0.654831 0.999115
vt 0.345093 0.025635
vt 0.345093 0.999115
vt 0.000046 0.999115
vt 0.345093 0.025635
vt 0.000046 0.999115
vt 0.000046 0.025635
vt 0.654831 0.025635
vt 0.654831 0.999115
vt 0.345093 0.999115
vt 0.654831 0.025635
vt 0.345093 0.999115
vt 0.345093 0.025635
vt 0.000046 0.025635
vt 0.000046 0.999115
vt 0.654831 0.999115
vt 0.000046 0.025635
vt 0.654831 0.999115
vt 0.654831 0.025635
vt 0.654831 0.999115
vt 0.000046 0.999115
vt 0.345093 0.999115
vt 1.17627 0.626755
vt 0.812378 0.328827
vt 0.812378 0.141571
vt 1.347824 0.818375
vt 0.782608 0.631058
vt 0.782608 0.76413
vt 1.347824 0.818375
vt 0.782608 0.76413
vt 1.347824 0.951462
vt 1.05365 0.809464
vt 1.347824 0.951462
vt 0.782608 0.76413
vt 1.347824 0.809464
vt 1.347824 0.951462
vt 1.05365 0.809464
vt 1.347824 0.643188
vt 0.782608 0.631058
vt 1.347824 0.818375
vt 1.025436 0.964996
vt 1.025436 0.492615
vt 1.489304 0.492615
vt 1.025436 0.964996
vt 1.489304 0.492615
vt 1.489304 0.964996
vt 0.753799 0.223175
vt 0.246185 0.223175
vt 0.152313 0.710754
vt 0.753799 0.223175
vt 0.152313 0.710754
vt 0.847672 0.710754
vt 1.049438 0.457947
vt 0.847672 0.780045
vt 0.5 0.37204
vt 0.753799 0.21994
vt 1.049438 0.457947
vt 0.5 0.37204
vt 0.246185 0.21994
vt 0.753799 0.21994
vt 0.5 0.37204
vt 1.17627 0.626755
vt 0.812378 0.141571
vt 0.927933 0.858414
vt 0.927933 0.858414
vt 0.927933 0.858414
vt 1.17627 0.626755
vt 0.072052 0.858414
vt 0.187607 0.141571
vt -0.17627 0.626755
vt -0.17627 0.626755
vt 0.187607 0.141571
vt 0.187607 0.328827
vt 0.782608 0.76413
vt 0.422409 0.709641
vt 0.539108 0.678635
vt 0.782608 0.76413
vt 0.539108 0.678635
vt 0.782608 0.678635
vt 0.422409 0.709641
vt 0.782608 0.76413
vt 0.217377 0.76413
vt 0.217377 0.631058
vt 0.782608 0.433075
vt 0.616577 0.433075
vt 0.782608 0.433075
vt 0.217377 0.631058
vt 0.782608 0.631058
vt 1.347824 0.433075
vt 0.782608 0.433075
vt 0.782608 0.631058
vt 1.347824 0.643188
vt 1.347824 0.433075
vt 0.782608 0.631058
vt 1.347824 0.809464
vt 1.05365 0.809464
vt 0.782608 0.678635
vt 1.347824 0.809464
vt 0.782608 0.678635
vt 1.347824 0.678635
vt 1.05365 0.809464
vt 0.782608 0.76413
vt 0.782608 0.678635
vt 0.782608 0.76413
vt 0.782608 0.631058
vt 0.217377 0.631058
vt 0.782608 0.76413
vt 0.217377 0.631058
vt 0.217377 0.76413
vt 0.072052 0.858414
vt -0.17627 0.626755
vt 0.072052 0.858414
vt 0.217377 0.76413
vt -0.347824 0.951462
vt -0.347824 0.678635
vt 0.616577 0.433075
vt 0.217377 0.433075
vt 0.217377 0.631058
vt 0.217377 0.76413
vt -0.347824 0.678635
vt 0.217377 0.678635
vt 0.422409 0.709641
vt 0.217377 0.76413
vt 0.217377 0.678635
vt 0.422409 0.709641
vt 0.217377 0.678635
vt 0.539108 0.678635
vt 0.217377 0.631058
vt -0.347824 0.818375
vt -0.347824 0.951462
vt 0.217377 0.631058
vt -0.347824 0.951462
vt 0.217377 0.76413
vt 0.217377 0.433075
vt -0.347824 0.433075
vt -0.347824 0.818375
vt 0.217377 0.433075
vt -0.347824 0.818375
vt 0.217377 0.631058
vt -0.049438 0.457947
vt 0.246185 0.21994
vt 0.5 0.37204
vt 0.217377 0.185013
vt -0.347824 0.678635
vt -0.347824 0.433075
vt 1.347824 0.433075
vt 1.347824 0.678635
vt 0.782608 0.185013
vt 0.847672 0.780045
vt 0.152313 0.780045
vt 0.5 0.37204
vt 0.152313 0.780045
vt -0.049438 0.457947
vt 0.5 0.37204
vt 0.072052 0.858414
vt 0.072052 0.858414
vt 0.927933 0.858414
vt 0.072052 0.858414
vt 0.927933 0.858414
vt 0.927933 0.858414
vt -0.347824 0.433075
vt -0.347824 0.678635
vt -0.347824 0.951462
vt -0.347824 0.433075
vt -0.347824 0.951462
vt -0.347824 0.818375
vt 1.347824 0.951462
vt 1.347824 0.809464
vt 1.347824 0.678635
vt 1.347824 0.951462
vt 1.347824 0.678635
vt 1.347824 0.433075
vt 1.347824 0.951462
vt 1.347824 0.433075
vt 1.347824 0.643188
vt 1.347824 0.951462
vt 1.347824 0.643188
vt 1.347824 0.818375
vt -0.347824 0.678635
vt 0.217377 0.185013
vt 0.782608 0.185013
vt -0.347824 0.678635
vt 0.782608 0.185013
vt 1.347824 0.678635
vt -0.347824 0.678635
vt 1.347824 0.678635
vt 0.782608 0.678635
vt -0.347824 0.678635
vt 0.782608 0.678635
vt 0.539108 0.678635
vt -0.347824 0.678635
vt 0.539108 0.678635
vt 0.217377 0.678635
vt 1.347824 0.433075
vt 0.782608 0.185013
vt 0.217377 0.185013
vt 1.347824 0.433075
vt 0.217377 0.185013
vt -0.347824 0.433075
vt 1.347824 0.433075
vt -0.347824 0.433075
vt 0.120758 0.433075
vt 1.347824 0.433075
vt 0.120758 0.433075
vt 0.656433 0.433075
vt 1.347824 0.433075
vt 0.656433 0.433075
vt 0.879227 0.433075
vt 0.55661 0.617523
vt 0.568726 0.217911
vt 0.431259 0.217911
vt 0.406174 0.782074
vt 0.55661 0.617523
vt 0.431259 0.217911
vt 0.960098 0.617523
vt 0.068726 0.782074
vt 0.093811 0.217911
vt 0.906174 0.217911
vt 0.960098 0.617523
vt 0.093811 0.217911
vt 0.093811 0.217911
vt 0.431259 0.217911
vt 0.568726 0.217911
vt 0.093811 0.217911
vt 0.568726 0.217911
vt 0.906174 0.217911
vt 0.068726 0.782074
vt 0.406174 0.782074
vt 0.431259 0.217911
vt 0.068726 0.782074
vt 0.431259 0.217911
vt 0.093811 0.217911
vt 0.960098 0.617523
vt 0.55661 0.617523
vt 0.406174 0.782074
vt 0.960098 0.617523
vt 0.406174 0.782074
vt 0.068726 0.782074
vt 0.906174 0.217911
vt 0.568726 0.217911
vt 0.55661 0.617523
vt 0.906174 0.217911
vt 0.55661 0.617523
vt 0.960098 0.617523
vt 0.636398 0.0
vt 0.636398 1.0
vt 1.0 0.858521
vt 0.636398 0.0
vt 1.0 0.0
vt 0.363586 0.0
vt 1.0 0.0
vt 0.636398 0.0
vt 1.0 0.858521
vt 1.0 0.0
vt 1.0 0.858521
vt 0.363586 1.0
vt 0.363586 0.0
vt 1.0 0.0
vt 0.363586 1.0
vt 1.0 0.858521
vt 0.636398 1.0
vt 0.363586 1.0
vt 0.363586 1.0
vt 0.636398 1.0
vt 0.636398 0.0
vt 0.363586 1.0
vt 0.636398 0.0
vt 0.363586 0.0
vt 0.431259 0.217911
vt 0.568726 0.217911
vt 0.55661 0.617523
vt 0.431259 0.217911
vt 0.55661 0.617523
vt 0.406174 0.782074
vt 0.093811 0.217911
vt 0.068726 0.782074
vt 0.960098 0.617523
vt 0.093811 0.217911
vt 0.960098 0.617523
vt 0.906174 0.217911
vt 0.093811 0.217911
vt 0.906174 0.217911
vt 0.568726 0.217911
vt 0.093811 0.217911
vt 0.568726 0.217911
vt 0.431259 0.217911
vt 0.068726 0.782074
vt 0.093811 0.217911
vt 0.431259 0.217911
vt 0.068726 0.782074
vt 0.431259 0.217911
vt 0.406174 0.782074
vt 0.960098 0.617523
vt 0.068726 0.782074
vt 0.406174 0.782074
vt 0.960098 0.617523
vt 0.406174 0.782074
vt 0.55661 0.617523
vt 0.906174 0.217911
vt 0.960098 0.617523
vt 0.55661 0.617523
vt 0.906174 0.217911
vt 0.55661 0.617523
vt 0.568726 0.217911
vt 1.0 0.858521
vt 0.636398 1.0
vt 0.636398 0.0
vt 0.363586 0.0
vt 1.0 0.0
vt 0.636398 0.0
vt 1.0 0.858521
vt 0.636398 0.0
vt 1.0 0.0
vt 0.363586 1.0
vt 1.0 0.858521
vt 1.0 0.0
vt 0.363586 1.0
vt 1.0 0.0
vt 0.363586 0.0
vt 0.363586 1.0
vt 0.636398 1.0
vt 1.0 0.858521
vt 0.363586 1.0
vt 0.363586 0.0
vt 0.636398 0.0
vt 0.363586 1.0
vt 0.636398 0.0
vt 0.636398 1.0
vt 0.402451 0.715164
vt 0.228287 0.895233
vt 0.090485 0.895233
vt 0.402451 0.715164
vt 0.090485 0.895233
vt 0.090485 0.715164
vt 0.853333 0.715164
vt 0.853333 0.895233
vt 0.71019 0.895233
vt 0.853333 0.715164
vt 0.71019 0.895233
vt 0.536026 0.715164
vt 0.536026 0.715164
vt 0.71019 0.895233
vt 0.228287 0.895233
vt 0.536026 0.715164
vt 0.228287 0.895233
vt 0.402451 0.715164
vt 0.0 1.0
vt 0.0 0.0
vt 1.0 0.0
vt 0.0 1.0
vt 0.0 0.0
vt 1.0 0.0

# 372 Vertex Normals
vn -0.87094 -0.491389 0.0
vn -0.87094 -0.491389 -0.0
vn -0.87094 -0.491389 0.0
vn -0.87094 -0.491389 0.0
vn -0.87094 -0.491389 0.0
vn -0.87094 -0.491389 0.0
vn 0.0 1.0 0.0
vn 0.0 1.0 0.0
vn 0.0 1.0 0.0
vn 0.0 1.0 0.0
vn 0.0 1.0 0.0
vn -0.0 1.0 0.0
vn 0.87094 -0.491389 -0.0
vn 0.87094 -0.491389 -0.0
vn 0.87094 -0.491389 -0.0
vn 0.87094 -0.491389 -0.0
vn 0.87094 -0.491389 -0.0
vn 0.87094 -0.491389 0.0
vn 0.0 -0.0 1.0
vn 0.0 -0.0 1.0
vn 0.0 -0.0 1.0
vn 0.87094 -0.491389 -0.0
vn 0.87094 -0.491389 -0.0
vn 0.87094 -0.491389 -0.0
vn 0.87094 -0.491389 -0.0
vn 0.87094 -0.491389 -0.0
vn 0.87094 -0.491389 -0.0
vn -0.0 1.0 0.0
vn -0.0 1.0 0.0
vn -0.0 1.0 0.0
vn -0.0 1.0 0.0
vn -0.0 1.0 0.0
vn -0.0 1.0 0.0
vn -0.87094 -0.491389 -0.0
vn -0.87094 -0.491389 -0.0
vn -0.87094 -0.491389 -0.0
vn -0.87094 -0.491389 -0.0
vn -0.87094 -0.491389 -0.0
vn -0.87094 -0.491389 -0.0
vn 0.0 -0.0 1.0
vn 0.0 -0.0 1.0
vn 0.0 -0.0 1.0
vn 0.971607 -0.178448 0.155358
vn 0.295959 -0.839409 0.455852
vn 0.467083 -0.876926 -0.113289
vn -0.524578 0.739443 -0.421949
vn -0.15011 0.503782 -0.850688
vn -0.255838 0.862745 0.436139
vn -0.524578 0.739443 -0.421949
vn -0.255838 0.862745 0.436139
vn -0.395235 0.702878 0.591398
vn -0.23391 0.539518 0.80883
vn -0.395235 0.702878 0.591398
vn -0.255838 0.862745 0.436139
vn -0.0 0.419123 0.907929
vn -0.395235 0.702878 0.591398
vn -0.23391 0.539518 0.80883
vn -0.062027 0.08974 -0.994032
vn -0.15011 0.503782 -0.850688
vn -0.524578 0.739443 -0.421949
vn -0.23469 -0.902679 0.36068
vn -0.301173 -0.953564 -0.003232
vn 0.199678 -0.979856 -0.003321
vn -0.23469 -0.902679 0.36068
vn 0.199678 -0.979856 -0.003321
vn 0.295959 -0.839409 0.455852
vn 0.374351 0.375032 -0.848064
vn -0.577826 0.285179 -0.764716
vn -0.381082 0.751997 -0.537845
vn 0.374351 0.375032 -0.848064
vn -0.381082 0.751997 -0.537845
vn 0.578204 0.659873 -0.47984
vn 0.641024 0.366131 0.674564
vn 0.268176 0.923067 0.275732
vn 0.000001 0.119965 0.992778
vn 0.295959 -0.839409 0.455852
vn 0.925616 0.01027 0.378325
vn 0.000001 0.119965 0.992778
vn -0.23469 -0.902679 0.36068
vn 0.295959 -0.839409 0.455852
vn 0.000001 -0.035662 0.999364
vn 0.971607 -0.178448 0.155358
vn 0.579345 0.04507 -0.813835
vn 0.578204 0.659873 -0.47984
vn 0.578204 0.659873 -0.47984
vn 0.268176 0.923067 0.275732
vn 0.925616 0.01027 0.378325
vn -0.381082 0.751997 -0.537845
vn -0.760097 -0.180121 -0.624346
vn -0.971608 -0.178442 0.155358
vn -0.971608 -0.178442 0.155358
vn -0.628325 -0.763159 -0.150987
vn -0.23469 -0.902679 0.36068
vn -0.255838 0.862745 0.436139
vn -0.0 0.690799 0.723047
vn -0.000066 0.81697 0.576681
vn -0.255838 0.862745 0.436139
vn -0.000066 0.81697 0.576681
vn -0.116228 0.55492 0.823744
vn -0.0 0.690799 0.723047
vn -0.255838 0.862745 0.436139
vn 0.164874 0.801758 0.574457
vn 0.214393 0.72265 -0.657125
vn -0.0 0.449779 -0.89314
vn -0.0 0.558066 -0.829797
vn -0.0 0.449779 -0.89314
vn 0.214393 0.72265 -0.657125
vn -0.15011 0.503782 -0.850688
vn -0.017659 -0.009428 -0.9998
vn -0.0 0.449779 -0.89314
vn -0.15011 0.503782 -0.850688
vn -0.062027 0.08974 -0.994032
vn -0.017659 -0.009428 -0.9998
vn -0.15011 0.503782 -0.850688
vn -0.0 0.419123 0.907929
vn -0.23391 0.539518 0.80883
vn -0.116228 0.55492 0.823744
vn -0.0 0.419123 0.907929
vn -0.116228 0.55492 0.823744
vn 0.0 -0.228336 0.973582
vn -0.23391 0.539518 0.80883
vn -0.255838 0.862745 0.436139
vn -0.116228 0.55492 0.823744
vn -0.255838 0.862745 0.436139
vn -0.15011 0.503782 -0.850688
vn 0.214393 0.72265 -0.657125
vn -0.255838 0.862745 0.436139
vn 0.214393 0.72265 -0.657125
vn 0.164874 0.801758 0.574457
vn -0.381082 0.751997 -0.537845
vn -0.925615 0.010277 0.378326
vn -0.336959 0.856778 0.390373
vn 0.164874 0.801758 0.574457
vn 0.547832 0.767538 0.332814
vn 0.10028 0.183434 0.977904
vn -0.0 0.558066 -0.829797
vn 0.03761 0.138903 -0.989591
vn 0.214393 0.72265 -0.657125
vn 0.164874 0.801758 0.574457
vn 0.110346 0.790976 0.601815
vn 0.000066 0.816942 0.57672
vn -0.0 0.690799 0.723047
vn 0.164874 0.801758 0.574457
vn 0.000066 0.816942 0.57672
vn -0.0 0.690799 0.723047
vn 0.000066 0.816942 0.57672
vn -0.000066 0.81697 0.576681
vn 0.214393 0.72265 -0.657125
vn 0.290186 0.456883 -0.840862
vn 0.547832 0.767538 0.332814
vn 0.214393 0.72265 -0.657125
vn 0.547832 0.767538 0.332814
vn 0.164874 0.801758 0.574457
vn 0.03761 0.138903 -0.989591
vn -0.0 -0.299692 -0.954036
vn 0.290186 0.456883 -0.840862
vn 0.03761 0.138903 -0.989591
vn 0.290186 0.456883 -0.840862
vn 0.214393 0.72265 -0.657125
vn -0.925615 0.010277 0.378326
vn -0.23469 -0.902679 0.36068
vn 0.000001 0.119965 0.992778
vn -0.271298 -0.9144 -0.300449
vn -0.380516 -0.884009 0.271542
vn -0.762513 -0.614629 -0.202005
vn 0.556006 -0.775269 -0.299692
vn 0.748483 -0.639673 0.174904
vn 0.267624 -0.947785 0.173439
vn 0.268176 0.923067 0.275732
vn -0.336959 0.856778 0.390373
vn 0.000001 0.311111 0.950374
vn -0.336959 0.856778 0.390373
vn -0.64102 0.366137 0.674564
vn 0.000001 0.119965 0.992778
vn -0.381082 0.751997 -0.537845
vn -0.336959 0.856778 0.390373
vn 0.268176 0.923067 0.275732
vn -0.381082 0.751997 -0.537845
vn 0.268176 0.923067 0.275732
vn 0.578204 0.659873 -0.47984
vn -0.977062 -0.212765 0.008959
vn -0.94692 -0.321185 0.013524
vn -1.0 0.0 -0.0
vn -0.977062 -0.212765 0.008959
vn -1.0 0.0 -0.0
vn -1.0 0.0 -0.0
vn 1.0 0.0 0.000015
vn 1.0 0.0 0.000061
vn 0.977062 -0.212765 0.00898
vn 1.0 0.0 0.000015
vn 0.977062 -0.212765 0.00898
vn 0.977062 -0.212765 0.008959
vn 1.0 0.0 0.000015
vn 0.977062 -0.212765 0.008959
vn 1.0 0.0 -0.0
vn 1.0 0.0 0.000015
vn 1.0 0.0 -0.0
vn 1.0 0.0 0.0
vn -0.114925 -0.862831 0.492255
vn -0.271298 -0.9144 -0.300449
vn 0.267624 -0.947785 0.173439
vn -0.114925 -0.862831 0.492255
vn 0.267624 -0.947785 0.173439
vn 0.301153 -0.747194 0.592459
vn -0.17908 -0.940466 0.288884
vn 0.305251 -0.91856 0.251136
vn 0.0 -1.0 0.0
vn -0.17908 -0.940466 0.288884
vn 0.0 -1.0 0.0
vn 0.0 -1.0 0.0
vn 0.110346 0.790976 0.601815
vn -0.000066 0.81697 0.576681
vn 0.000066 0.816942 0.57672
vn 0.143561 -0.714852 -0.684381
vn 0.267624 -0.947785 0.173439
vn -0.271298 -0.9144 -0.300449
vn 0.143561 -0.714852 -0.684381
vn -0.271298 -0.9144 -0.300449
vn -0.275106 -0.749613 -0.601994
vn 0.186643 -0.916345 -0.354227
vn -0.317414 -0.900879 -0.296084
vn 0.0 -1.0 0.0
vn 0.186643 -0.916345 -0.354227
vn 0.0 -1.0 0.0
vn 0.0 -1.0 0.0
vn -0.026454 0.5346 -0.844691
vn -0.0 0.558066 -0.829797
vn -0.0 0.449779 -0.89314
vn -0.758105 0.377122 0.532029
vn -0.684235 0.262727 0.680292
vn -0.062868 0.165895 0.984137
vn -0.640037 0.648791 0.41161
vn -0.758105 0.377122 0.532029
vn -0.062868 0.165895 0.984137
vn 0.062868 -0.165895 -0.984137
vn 0.906141 -0.054192 -0.419489
vn 0.346436 -0.717529 -0.604263
vn -0.0 -0.775816 -0.630959
vn 0.062868 -0.165895 -0.984137
vn 0.041114 -0.76425 -0.643608
vn 0.041114 -0.76425 -0.643608
vn -0.0 -1.0 0.0
vn -0.0 -1.0 0.0
vn 0.041114 -0.76425 -0.643608
vn -0.0 -1.0 0.0
vn -0.0 -0.775816 -0.630959
vn 0.906141 -0.054192 -0.419489
vn 1.0 0.0 -0.0
vn 1.0 0.0 0.0
vn 0.906141 -0.054192 -0.419489
vn 1.0 0.0 0.0
vn 0.750132 -0.084726 -0.655838
vn -0.831205 0.555965 -0.0
vn -0.758105 0.377122 0.532029
vn -0.640037 0.648791 0.41161
vn -0.831205 0.555965 -0.0
vn -0.640037 0.648791 0.41161
vn -0.702287 0.711893 0.0
vn -0.98469 0.174312 0.0
vn -0.684235 0.262727 0.680292
vn -0.758105 0.377122 0.532029
vn -0.98469 0.174312 0.0
vn -0.758105 0.377122 0.532029
vn -0.831205 0.555965 -0.0
vn -0.846956 -0.530974 -0.027049
vn -0.821668 -0.569967 -0.0
vn -0.846956 -0.530974 -0.027049
vn 0.0 -0.0 1.0
vn 0.0 -0.0 1.0
vn 0.0 -0.0 1.0
vn -0.869796 -0.490446 -0.054021
vn -0.846956 -0.530974 -0.027049
vn -0.846956 -0.530974 -0.027049
vn 0.85238 -0.522037 -0.03042
vn 0.831794 -0.551747 -0.060773
vn 0.85238 -0.522037 -0.03042
vn 0.871068 -0.491163 -0.0
vn 0.85238 -0.522037 -0.03042
vn 0.85238 -0.522037 -0.03042
vn 0.0 0.383615 -0.923493
vn -0.0 0.83175 -0.555151
vn 0.0 0.932462 -0.361267
vn 0.0 0.932462 -0.361267
vn -0.0 0.83175 -0.555151
vn 0.0 1.0 0.0
vn 0.0 0.932462 -0.361267
vn 0.0 1.0 0.0
vn 0.0 1.0 0.0
vn 0.062868 0.165895 0.984137
vn 0.684233 0.262733 0.680291
vn 0.758104 0.377126 0.532029
vn 0.062868 0.165895 0.984137
vn 0.758104 0.377126 0.532029
vn 0.640036 0.648792 0.41161
vn -0.346436 -0.717529 -0.604263
vn -0.906141 -0.054192 -0.419489
vn -0.062868 -0.165895 -0.984137
vn -0.041114 -0.76425 -0.643608
vn -0.062868 -0.165895 -0.984137
vn 0.0 -0.775816 -0.630959
vn -0.041114 -0.76425 -0.643608
vn 0.0 -0.775816 -0.630959
vn 0.0 -1.0 0.0
vn -0.041114 -0.76425 -0.643608
vn 0.0 -1.0 0.0
vn -0.0 -1.0 0.0
vn -0.906141 -0.054192 -0.419489
vn -0.750132 -0.084726 -0.655838
vn -1.0 0.0 0.0
vn -0.906141 -0.054192 -0.419489
vn -1.0 0.0 0.0
vn -1.0 0.0 0.0
vn 0.831204 0.555968 0.0
vn 0.702287 0.711894 0.0
vn 0.640036 0.648792 0.41161
vn 0.831204 0.555968 0.0
vn 0.640036 0.648792 0.41161
vn 0.758104 0.377126 0.532029
vn 0.984689 0.17432 0.0
vn 0.831204 0.555968 0.0
vn 0.758104 0.377126 0.532029
vn 0.984689 0.17432 0.0
vn 0.758104 0.377126 0.532029
vn 0.684233 0.262733 0.680291
vn 0.846956 -0.530974 -0.027049
vn 0.821668 -0.569967 0.0
vn 0.846956 -0.530974 -0.027049
vn 0.0 0.0 1.0
vn 0.0 0.0 1.0
vn 0.0 0.0 1.0
vn 0.846956 -0.530974 -0.027049
vn 0.846956 -0.530974 -0.027049
vn 0.869796 -0.490446 -0.054021
vn -0.85238 -0.522037 -0.03042
vn -0.831795 -0.551747 -0.060773
vn -0.85238 -0.522037 -0.03042
vn -0.85238 -0.522037 -0.03042
vn -0.85238 -0.522037 -0.03042
vn -0.871068 -0.491163 -0.0
vn 0.0 0.932462 -0.361267
vn 0.0 0.83175 -0.555151
vn 0.0 0.383615 -0.923493
vn 0.0 0.932462 -0.361267
vn 0.0 1.0 0.0
vn 0.0 1.0 0.0
vn 0.0 0.932462 -0.361267
vn 0.0 1.0 0.0
vn 0.0 0.83175 -0.555151
vn -0.185633 0.603646 0.77534
vn -0.092712 0.662244 0.74353
vn -0.274887 0.538167 0.796752
vn -0.185633 0.603646 0.77534
vn -0.274887 0.538167 0.796752
vn -0.275186 0.537816 0.796886
vn 0.274969 0.53847 0.796519
vn 0.27516 0.53857 0.796385
vn 0.185686 0.603843 0.775174
vn 0.274969 0.53847 0.796519
vn 0.185686 0.603843 0.775174
vn 0.092778 0.662206 0.743556
vn 0.092778 0.662206 0.743556
vn 0.185686 0.603843 0.775174
vn -0.092712 0.662244 0.74353
vn 0.092778 0.662206 0.743556
vn -0.092712 0.662244 0.74353
vn -0.185633 0.603646 0.77534
vn 0.0 -0.0 1.0
vn 0.0 -0.0 1.0
vn 0.0 -0.0 1.0
vn 0.0 -0.0 1.0
vn 0.0 -0.0 1.0
vn 0.0 -0.0 1.0

# guns, 14 grouped triangles

usemtl rbot012
o guns
g guns

f 55/1/1 54/2/2 53/3/3
f 55/4/4 53/5/5 52/6/6
f 57/7/7 55/8/8 52/9/9
f 57/10/10 52/11/11 56/12/12
f 54/13/13 57/14/14 56/15/15
f 54/16/16 56/17/17 53/18/18
f 52/19/19 53/20/20 56/21/21
f 78/22/22 77/23/23 76/24/24
f 78/25/25 76/26/26 75/27/27
f 80/28/28 79/29/29 77/30/30
f 80/31/31 77/32/32 78/33/33
f 75/34/34 76/35/35 79/36/36
f 75/37/37 79/38/38 80/39/39
f 79/40/40 76/41/41 77/42/42
# body, 102 grouped triangles

usemtl rbot055
o body
g body

f 3/43/43 2/44/44 1/45/45
f 6/46/46 5/47/47 4/48/48
f 6/49/49 4/50/50 7/51/51
f 8/52/52 7/53/53 4/54/54
f 9/55/55 7/56/56 8/57/57
f 10/58/58 5/59/59 6/60/60
f 12/61/61 11/62/62 1/63/63
f 12/64/64 1/65/65 2/66/66
f 1/67/67 11/68/68 14/69/69
f 1/70/70 14/71/71 13/72/72
f 3/73/73 16/74/74 15/75/75
f 2/76/76 3/77/77 15/78/78
f 12/79/79 2/80/80 15/81/81
f 3/82/82 1/83/83 13/84/84
f 13/85/85 16/86/86 3/87/87
f 14/88/88 11/89/89 17/90/90
f 17/91/91 11/92/92 12/93/93
f 4/94/94 20/95/95 19/96/96
f 4/97/97 19/98/98 18/99/99
f 20/100/100 4/101/101 21/102/102
f 24/103/103 23/104/104 22/105/105
f 23/106/106 24/107/107 5/108/108
f 25/109/109 23/110/110 5/111/111
f 10/112/112 25/113/113 5/114/114
f 9/115/115 8/116/116 18/117/117
f 9/118/118 18/119/119 26/120/120
f 8/121/121 4/122/122 18/123/123
f 4/124/124 5/125/125 24/126/126
f 4/127/127 24/128/128 21/129/129
f 14/130/130 17/131/131 27/132/132
f 21/133/133 29/134/134 28/135/135
f 22/136/136 30/137/137 24/138/138
f 21/139/139 28/140/140 31/141/141
f 20/142/142 21/143/143 31/144/144
f 20/145/145 31/146/146 19/147/147
f 24/148/148 32/149/149 29/150/150
f 24/151/151 29/152/152 21/153/153
f 30/154/154 33/155/155 32/156/156
f 30/157/157 32/158/158 24/159/159
f 17/160/160 12/161/161 15/162/162
f 34/163/163 28/164/164 33/165/165
f 25/166/166 26/167/167 35/168/168
f 16/169/169 27/170/170 15/171/171
f 27/172/172 17/173/173 15/174/174
f 14/175/175 27/176/176 16/177/177
f 14/178/178 16/179/179 13/180/180
f 33/181/181 28/182/182 29/183/183
f 33/184/184 29/185/185 32/186/186
f 7/187/187 9/188/188 26/189/189
f 7/190/190 26/191/191 25/192/192
f 7/193/193 25/194/194 10/195/195
f 7/196/196 10/197/197 6/198/198
f 28/199/199 34/200/200 35/201/201
f 28/202/202 35/203/203 26/204/204
f 28/205/205 26/206/206 18/207/207
f 28/208/208 18/209/209 19/210/210
f 28/211/211 19/212/212 31/213/213
f 25/214/214 35/215/215 34/216/216
f 25/217/217 34/218/218 33/219/219
f 25/220/220 33/221/221 30/222/222
f 25/223/223 30/224/224 22/225/225
f 25/226/226 22/227/227 23/228/228
f 46/229/229 45/230/230 44/231/231
f 47/232/232 46/233/233 44/234/234
f 50/235/235 49/236/236 48/237/237
f 51/238/238 50/239/239 48/240/240
f 48/241/241 44/242/242 45/243/243
f 48/244/244 45/245/245 51/246/246
f 49/247/247 47/248/248 44/249/249
f 49/250/250 44/251/251 48/252/252
f 50/253/253 46/254/254 47/255/255
f 50/256/256 47/257/257 49/258/258
f 51/259/259 45/260/260 46/261/261
f 51/262/262 46/263/263 50/264/264
f 60/265/265 59/266/266 58/267/267
f 60/268/268 62/269/269 61/270/270
f 62/271/271 60/272/272 58/273/273
f 62/274/274 58/275/275 63/276/276
f 61/277/277 62/278/278 63/279/279
f 58/280/280 59/281/281 63/282/282
f 63/283/283 59/284/284 60/285/285
f 63/286/286 60/287/287 61/288/288
f 69/289/289 68/290/290 67/291/291
f 69/292/292 67/293/293 70/294/294
f 73/295/295 72/296/296 71/297/297
f 73/298/298 71/299/299 74/300/300
f 73/301/301 74/302/302 68/303/303
f 73/304/304 68/305/305 69/306/306
f 72/307/307 73/308/308 69/309/309
f 72/310/310 69/311/311 70/312/312
f 71/313/313 72/314/314 70/315/315
f 71/316/316 70/317/317 67/318/318
f 74/319/319 71/320/320 67/321/321
f 74/322/322 67/323/323 68/324/324
f 83/325/325 82/326/326 81/327/327
f 85/328/328 84/329/329 81/330/330
f 83/331/331 81/332/332 84/333/333
f 86/334/334 83/335/335 84/336/336
f 86/337/337 84/338/338 85/339/339
f 86/340/340 82/341/341 83/342/342
f 86/343/343 85/344/344 81/345/345
f 86/346/346 81/347/347 82/348/348
# face, 6 grouped triangles

usemtl eye01
o face
g face

f 39/349/349 38/350/350 37/351/351
f 39/352/352 37/353/353 36/354/354
f 43/355/355 42/356/356 41/357/357
f 43/358/358 41/359/359 40/360/360
f 40/361/361 41/362/362 38/363/363
f 40/364/364 38/365/365 39/366/366
# muzzle, 2 grouped triangles

usemtl flat0
o muzzle
g muzzle

f 66/367/367 65/368/368 64/369/369
f 89/370/370 88/371/371 87/372/372
