# Wavefront OBJ file
# Exported by Misfit Model 3D 1.3.8
# Tue Apr 04 10:31:36 2023

mtllib Medium_Hulk_RightArm.mtl

# 23 Vertices
v 0.838407 -0.420903 0.945581
v 1.077345 -3.007903 1.307581
v 0.002149 -3.007903 1.307581
v 0.002149 0.644097 0.945581
v 0.838407 -0.420903 -1.024419
v 0.002149 0.644097 -1.024419
v 0.002149 -3.007903 -0.662419
v 1.077345 -3.007903 -0.662419
v 0.656767 -4.387903 2.479581
v 0.656767 -4.387903 4.688581
v 1.284635 -3.300903 4.688581
v 1.284635 -3.300903 2.479581
v 0.028929 -3.300903 4.688581
v 0.028929 -3.300903 2.479581
v 1.776609 -3.008903 2.455581
v 1.776609 -3.008903 0.124581
v 0.656538 -4.585903 -0.454419
v 0.656538 -4.948903 2.455581
v -0.463534 -3.008903 2.455581
v -0.463534 -3.008903 0.124581
v 1.012968 -3.464903 4.702581
v 0.658567 -4.078903 4.702581
v 0.304197 -3.464903 4.702581

# 84 Texture Coordinates
vt 0.431259 0.217911
vt 0.568726 0.217911
vt 0.55661 0.617523
vt 0.431259 0.217911
vt 0.55661 0.617523
vt 0.406174 0.782074
vt 0.093811 0.217911
vt 0.068726 0.782074
vt 0.960098 0.617523
vt 0.093811 0.217911
vt 0.960098 0.617523
vt 0.906174 0.217911
vt 0.093811 0.217911
vt 0.906174 0.217911
vt 0.568726 0.217911
vt 0.093811 0.217911
vt 0.568726 0.217911
vt 0.431259 0.217911
vt 0.068726 0.782074
vt 0.093811 0.217911
vt 0.431259 0.217911
vt 0.068726 0.782074
vt 0.431259 0.217911
vt 0.406174 0.782074
vt 0.960098 0.617523
vt 0.068726 0.782074
vt 0.406174 0.782074
vt 0.960098 0.617523
vt 0.406174 0.782074
vt 0.55661 0.617523
vt 0.906174 0.217911
vt 0.960098 0.617523
vt 0.55661 0.617523
vt 0.906174 0.217911
vt 0.55661 0.617523
vt 0.568726 0.217911
vt 1.0 0.858521
vt 0.636398 1.0
vt 0.636398 0.0
vt 0.363586 0.0
vt 1.0 0.0
vt 0.636398 0.0
vt 1.0 0.858521
vt 0.636398 0.0
vt 1.0 0.0
vt 0.363586 1.0
vt 1.0 0.858521
vt 1.0 0.0
vt 0.363586 1.0
vt 1.0 0.0
vt 0.363586 0.0
vt 0.363586 1.0
vt 0.636398 1.0
vt 1.0 0.858521
vt 0.363586 1.0
vt 0.363586 0.0
vt 0.636398 0.0
vt 0.363586 1.0
vt 0.636398 0.0
vt 0.636398 1.0
vt 0.345093 0.025635
vt 0.345093 0.999115
vt 0.000046 0.999115
vt 0.345093 0.025635
vt 0.000046 0.999115
vt 0.000046 0.025635
vt 0.654831 0.025635
vt 0.654831 0.999115
vt 0.345093 0.999115
vt 0.654831 0.025635
vt 0.345093 0.999115
vt 0.345093 0.025635
vt 0.000046 0.025635
vt 0.000046 0.999115
vt 0.654831 0.999115
vt 0.000046 0.025635
vt 0.654831 0.999115
vt 0.654831 0.025635
vt 0.654831 0.999115
vt 0.000046 0.999115
vt 0.345093 0.999115
vt 0.0 1.0
vt 0.0 0.0
vt 1.0 0.0

# 84 Vertex Normals
vn 0.062455 0.118481 0.99099
vn -0.0 0.13858 0.990351
vn 0.389547 0.365127 0.845539
vn 0.062455 0.118481 0.99099
vn 0.792529 0.283401 0.539983
vn 0.715229 0.561612 0.41598
vn -0.352521 -0.70102 -0.619919
vn -0.906068 -0.041738 -0.421068
vn -0.062455 -0.118481 -0.99099
vn -0.041713 -0.748458 -0.661869
vn -0.062455 -0.118481 -0.99099
vn 0.0 -0.754513 -0.656285
vn -0.041713 -0.748458 -0.661869
vn 0.0 -0.754513 -0.656285
vn 0.0 -1.0 0.0
vn -0.041713 -0.748458 -0.661869
vn 0.0 -1.0 0.0
vn -0.0 -1.0 0.0
vn -0.906068 -0.041738 -0.421068
vn -0.749881 -0.065258 -0.658347
vn -1.0 0.0 0.0
vn -0.906068 -0.041738 -0.421068
vn -1.0 0.0 0.0
vn -1.0 0.0 0.0
vn 0.888436 0.459001 -0.0
vn 0.786508 0.617581 -0.0
vn 0.715229 0.561612 0.41598
vn 0.888436 0.459001 -0.0
vn 0.715229 0.561612 0.41598
vn 0.792529 0.283401 0.539983
vn 0.995762 0.09197 -0.0
vn 0.888436 0.459001 -0.0
vn 0.908448 0.281482 0.309014
vn 0.995762 0.09197 -0.0
vn 0.908448 0.281482 0.309014
vn 0.995762 0.09197 0.0
vn 0.841149 -0.539904 -0.031175
vn 0.815285 -0.57906 -0.0
vn 0.841149 -0.539904 -0.031175
vn 0.0 -0.0 1.0
vn 0.0 -0.0 1.0
vn 0.0 -0.0 1.0
vn 0.841149 -0.539904 -0.031175
vn 0.841149 -0.539904 -0.031175
vn 0.864344 -0.499034 -0.062251
vn -0.846707 -0.530907 -0.035001
vn -0.825229 -0.560454 -0.069912
vn -0.846707 -0.530907 -0.035001
vn -0.846707 -0.530907 -0.035001
vn -0.846707 -0.530907 -0.035001
vn -0.866023 -0.500004 0.0
vn 0.0 0.928358 -0.371686
vn 0.0 0.819956 -0.572426
vn -0.0 0.344657 -0.938729
vn 0.0 0.928358 -0.371686
vn 0.0 1.0 0.0
vn 0.0 1.0 0.0
vn 0.0 0.928358 -0.371686
vn 0.0 1.0 0.0
vn 0.0 0.819956 -0.572426
vn 0.865926 -0.500172 0.0
vn 0.865926 -0.500172 0.0
vn 0.865926 -0.500172 0.0
vn 0.865926 -0.500172 0.0
vn 0.865926 -0.500172 0.0
vn 0.865926 -0.500172 -0.0
vn -0.0 1.0 0.0
vn -0.0 1.0 0.0
vn -0.0 1.0 0.0
vn -0.0 1.0 0.0
vn -0.0 1.0 0.0
vn -0.0 1.0 0.0
vn -0.865936 -0.500154 -0.0
vn -0.865936 -0.500154 -0.0
vn -0.865936 -0.500154 -0.0
vn -0.865936 -0.500154 -0.0
vn -0.865936 -0.500154 -0.0
vn -0.865936 -0.500154 0.0
vn 0.0 -0.0 1.0
vn 0.0 -0.0 1.0
vn 0.0 -0.0 1.0
vn 0.0 -0.0 1.0
vn 0.0 -0.0 1.0
vn 0.0 -0.0 1.0

# body, 20 grouped triangles

usemtl rbot010
o body
g body

f 3/1/1 2/2/2 1/3/3
f 3/4/4 1/5/5 4/6/6
f 7/7/7 6/8/8 5/9/9
f 7/10/10 5/11/11 8/12/12
f 7/13/13 8/14/14 2/15/15
f 7/16/16 2/17/17 3/18/18
f 6/19/19 7/20/20 3/21/21
f 6/22/22 3/23/23 4/24/24
f 5/25/25 6/26/26 4/27/27
f 5/28/28 4/29/29 1/30/30
f 8/31/31 5/32/32 1/33/33
f 8/34/34 1/35/35 2/36/36
f 17/37/37 16/38/38 15/39/39
f 19/40/40 18/41/41 15/42/42
f 17/43/43 15/44/44 18/45/45
f 20/46/46 17/47/47 18/48/48
f 20/49/49 18/50/50 19/51/51
f 20/52/52 16/53/53 17/54/54
f 20/55/55 19/56/56 15/57/57
f 20/58/58 15/59/59 16/60/60
# guns, 7 grouped triangles

usemtl rbot012
o guns
g guns

f 12/61/61 11/62/62 10/63/63
f 12/64/64 10/65/65 9/66/66
f 14/67/67 13/68/68 11/69/69
f 14/70/70 11/71/71 12/72/72
f 9/73/73 10/74/74 13/75/75
f 9/76/76 13/77/77 14/78/78
f 13/79/79 10/80/80 11/81/81
# muzzle, 1 grouped triangles

usemtl flat0
o muzzle
g muzzle

f 23/82/82 22/83/83 21/84/84
