# Wavefront OBJ file
# Exported by Misfit Model 3D 1.3.8
# Tue Apr 04 10:31:22 2023

mtllib Medium_Hulk_LeftArm.mtl

# 23 Vertices
v 0.003858 -3.002525 1.305944
v -1.071337 -3.002525 1.305944
v -0.8324 -0.416525 0.943944
v 0.003858 0.648475 0.943944
v 0.003858 -3.002525 -0.664056
v 0.003858 0.648475 -1.026056
v -0.8324 -0.416525 -1.026056
v -1.071337 -3.002525 -0.664056
v -1.302111 -3.295525 4.686944
v -0.674243 -4.382525 4.686944
v -0.674243 -4.382525 2.477944
v -1.302111 -3.295525 2.477944
v -0.046404 -3.295525 4.686944
v -0.046404 -3.295525 2.477944
v -0.674014 -4.580525 -0.456056
v -1.794085 -3.003525 0.122944
v -1.794085 -3.003525 2.453944
v 0.446058 -3.003525 2.453944
v -0.674014 -4.943525 2.453944
v 0.446058 -3.003525 0.122944
v -0.319856 -3.459525 4.700944
v -0.674243 -4.073525 4.700944
v -1.028642 -3.459525 4.700944

# 84 Texture Coordinates
vt 0.429199 0.617432
vt 0.422012 0.217819
vt 0.558975 0.217819
vt 0.581696 0.781982
vt 0.429199 0.617432
vt 0.558975 0.217819
vt 0.050507 0.617432
vt 0.94101 0.781982
vt 0.918289 0.217819
vt 0.104813 0.217819
vt 0.050507 0.617432
vt 0.918289 0.217819
vt 0.558975 0.217819
vt 0.422012 0.217819
vt 0.104813 0.217819
vt 0.558975 0.217819
vt 0.104813 0.217819
vt 0.918289 0.217819
vt 0.94101 0.781982
vt 0.581696 0.781982
vt 0.558975 0.217819
vt 0.94101 0.781982
vt 0.558975 0.217819
vt 0.918289 0.217819
vt 0.050507 0.617432
vt 0.429199 0.617432
vt 0.581696 0.781982
vt 0.050507 0.617432
vt 0.581696 0.781982
vt 0.94101 0.781982
vt 0.104813 0.217819
vt 0.422012 0.217819
vt 0.429199 0.617432
vt 0.104813 0.217819
vt 0.429199 0.617432
vt 0.050507 0.617432
vt 0.365524 0.0
vt 0.365524 1.0
vt 0.992889 0.858521
vt 0.365524 0.0
vt 0.995544 0.0
vt 0.638275 0.0
vt 0.995544 0.0
vt 0.365524 0.0
vt 0.992889 0.858521
vt 0.995544 0.0
vt 0.992889 0.858521
vt 0.638275 1.0
vt 0.638275 0.0
vt 0.995544 0.0
vt 0.638275 1.0
vt 0.992889 0.858521
vt 0.365524 1.0
vt 0.638275 1.0
vt 0.638275 1.0
vt 0.365524 1.0
vt 0.365524 0.0
vt 0.638275 1.0
vt 0.365524 0.0
vt 0.638275 0.0
vt 0.654571 0.025635
vt 0.00058 0.025635
vt 0.00058 0.999115
vt 0.654571 0.025635
vt 0.00058 0.999115
vt 0.654571 0.999115
vt 0.344833 0.025635
vt 0.654571 0.025635
vt 0.654571 0.999115
vt 0.344833 0.025635
vt 0.654571 0.999115
vt 0.344833 0.999115
vt 0.00058 0.025635
vt 0.344833 0.025635
vt 0.344833 0.999115
vt 0.00058 0.025635
vt 0.344833 0.999115
vt 0.00058 0.999115
vt 0.654571 0.999115
vt 0.00058 0.999115
vt 0.344833 0.999115
vt 0.0 1.0
vt 0.0 0.0
vt 1.0 0.0

# 84 Vertex Normals
vn -0.389556 0.365156 0.845522
vn -0.0 0.138633 0.990344
vn -0.062472 0.11852 0.990984
vn -0.715233 0.561614 0.415971
vn -0.792524 0.283438 0.539971
vn -0.062472 0.11852 0.990984
vn 0.062472 -0.11852 -0.990984
vn 0.906072 -0.041748 -0.42106
vn 0.434331 -0.477528 -0.763756
vn 0.0 -0.907429 -0.420206
vn 0.062472 -0.11852 -0.990984
vn 0.053376 -0.529387 -0.846699
vn 0.0 -1.0 0.0
vn -0.0 -1.0 0.0
vn 0.0 -0.907429 -0.420206
vn 0.0 -1.0 0.0
vn 0.0 -0.907429 -0.420206
vn 0.053376 -0.529387 -0.846699
vn 0.906072 -0.041748 -0.42106
vn 1.0 0.0 -0.0
vn 1.0 0.0 0.0
vn 0.906072 -0.041748 -0.42106
vn 1.0 0.0 0.0
vn 0.749892 -0.065274 -0.658332
vn -0.888431 0.459011 0.0
vn -0.792524 0.283438 0.539971
vn -0.715233 0.561614 0.415971
vn -0.888431 0.459011 0.0
vn -0.715233 0.561614 0.415971
vn -0.786508 0.617581 0.0
vn -0.995759 0.092004 0.0
vn -0.995759 0.092004 0.0
vn -0.908443 0.281508 0.309008
vn -0.995759 0.092004 0.0
vn -0.908443 0.281508 0.309008
vn -0.888431 0.459011 0.0
vn -0.841149 -0.539904 -0.031175
vn -0.815285 -0.57906 0.0
vn -0.841149 -0.539904 -0.031175
vn 0.0 -0.0 1.0
vn 0.0 -0.0 1.0
vn 0.0 -0.0 1.0
vn -0.864344 -0.499034 -0.062251
vn -0.841149 -0.539904 -0.031175
vn -0.841149 -0.539904 -0.031175
vn 0.846707 -0.530907 -0.035001
vn 0.825229 -0.560454 -0.069912
vn 0.846707 -0.530907 -0.035001
vn 0.866023 -0.500004 -0.0
vn 0.846707 -0.530907 -0.035001
vn 0.846707 -0.530907 -0.035001
vn 0.0 0.344657 -0.938729
vn -0.0 0.819956 -0.572426
vn 0.0 0.928358 -0.371686
vn 0.0 0.928358 -0.371686
vn -0.0 0.819956 -0.572426
vn 0.0 1.0 0.0
vn 0.0 0.928358 -0.371686
vn 0.0 1.0 0.0
vn 0.0 1.0 0.0
vn -0.865926 -0.500172 -0.0
vn -0.865926 -0.500172 -0.0
vn -0.865926 -0.500172 -0.0
vn -0.865926 -0.500172 -0.0
vn -0.865926 -0.500172 -0.0
vn -0.865926 -0.500172 -0.0
vn 0.0 1.0 0.0
vn 0.0 1.0 0.0
vn 0.0 1.0 0.0
vn 0.0 1.0 0.0
vn 0.0 1.0 0.0
vn -0.0 1.0 0.0
vn 0.865936 -0.500155 0.0
vn 0.865936 -0.500155 -0.0
vn 0.865936 -0.500155 0.0
vn 0.865936 -0.500155 0.0
vn 0.865936 -0.500155 0.0
vn 0.865936 -0.500155 0.0
vn 0.0 0.0 1.0
vn 0.0 0.0 1.0
vn 0.0 0.0 1.0
vn 0.0 0.0 1.0
vn 0.0 0.0 1.0
vn 0.0 0.0 1.0

# body, 20 grouped triangles

usemtl rbot010
o body
g body

f 3/1/1 2/2/2 1/3/3
f 4/4/4 3/5/5 1/6/6
f 7/7/7 6/8/8 5/9/9
f 8/10/10 7/11/11 5/12/12
f 1/13/13 2/14/14 8/15/15
f 1/16/16 8/17/17 5/18/18
f 6/19/19 4/20/20 1/21/21
f 6/22/22 1/23/23 5/24/24
f 7/25/25 3/26/26 4/27/27
f 7/28/28 4/29/29 6/30/30
f 8/31/31 2/32/32 3/33/33
f 8/34/34 3/35/35 7/36/36
f 17/37/37 16/38/38 15/39/39
f 17/40/40 19/41/41 18/42/42
f 19/43/43 17/44/44 15/45/45
f 19/46/46 15/47/47 20/48/48
f 18/49/49 19/50/50 20/51/51
f 15/52/52 16/53/53 20/54/54
f 20/55/55 16/56/56 17/57/57
f 20/58/58 17/59/59 18/60/60
# guns, 7 grouped triangles

usemtl rbot012
o guns
g guns

f 12/61/61 11/62/62 10/63/63
f 12/64/64 10/65/65 9/66/66
f 14/67/67 12/68/68 9/69/69
f 14/70/70 9/71/71 13/72/72
f 11/73/73 14/74/74 13/75/75
f 11/76/76 13/77/77 10/78/78
f 9/79/79 10/80/80 13/81/81
# muzzle, 1 grouped triangles

usemtl flat0
o muzzle
g muzzle

f 23/82/82 22/83/83 21/84/84
