# Wavefront OBJ file
# Exported by Misfit Model 3D 1.3.8
# Mon Apr 03 19:36:35 2023

mtllib Medium_Lifter_LeftArm.mtl

# 18 Vertices
v -0.299587 -0.779787 0.350836
v 0.260808 0.262213 0.244836
v -0.00735 0.315213 -0.552164
v -1.723491 0.964213 1.633836
v -1.733257 0.981213 1.944836
v -2.150615 0.961213 2.250836
v -1.814235 0.938213 1.302836
v -3.571162 0.877213 2.981836
v -1.048122 1.098213 2.981836
v -2.367015 1.644213 2.618835
v -2.371104 -1.336787 4.183835
v -3.198238 1.430213 3.124836
v -2.970348 1.940213 2.471836
v -1.406383 -1.540787 4.341835
v -2.13116 1.863213 2.539835
v -1.668514 1.455213 3.192836
v -1.283717 1.937213 2.539835
v -3.753261 1.733213 2.543836

# 60 Texture Coordinates
vt 0.81485 0.909439
vt 0.980331 0.820129
vt 0.318619 0.829758
vt 0.455246 0.108627
vt 0.909805 0.211365
vt 0.739105 0.264938
vt 0.81485 0.909439
vt 0.318619 0.829758
vt 0.455246 0.108627
vt 0.81485 0.909439
vt 0.455246 0.108627
vt 0.739105 0.264938
vt 0.980331 0.820129
vt 0.909805 0.211365
vt 0.455246 0.108627
vt 0.980331 0.820129
vt 0.455246 0.108627
vt 0.318619 0.829758
vt 0.81485 0.909439
vt 0.739105 0.264938
vt 0.909805 0.211365
vt 0.81485 0.909439
vt 0.909805 0.211365
vt 0.980331 0.820129
vt 0.961899 0.120483
vt 0.039063 0.120483
vt 0.681686 0.879501
vt 0.479492 0.284698
vt 0.961899 0.120483
vt 0.681686 0.879501
vt 0.039063 0.120483
vt 0.479492 0.284698
vt 0.681686 0.879501
vt 0.961899 0.120483
vt 0.479492 0.284698
vt 0.039063 0.120483
vt 0.836441 0.953919
vt 0.545746 0.790619
vt 0.640778 0.02034
vt 0.495773 0.782929
vt 0.232574 0.951248
vt 0.482712 -0.023758
vt 0.232574 0.951248
vt 0.495773 0.782929
vt 0.814789 0.952042
vt 0.229019 0.952301
vt 0.836441 0.953919
vt 0.640778 0.02034
vt 0.545746 0.790619
vt 0.229019 0.952301
vt 0.640778 0.02034
vt 0.229019 0.952301
vt 0.545746 0.790619
vt 0.836441 0.953919
vt 0.232574 0.951248
vt 0.814789 0.952042
vt 0.482712 -0.023758
vt 0.814789 0.952042
vt 0.495773 0.782929
vt 0.482712 -0.023758

# 60 Vertex Normals
vn 0.824187 -0.474674 -0.308871
vn 0.786298 -0.370096 0.494737
vn 0.855603 -0.430984 0.286698
vn -0.089562 0.994339 -0.057165
vn 0.17796 0.982889 -0.047532
vn 0.110279 0.992602 -0.050795
vn -0.79667 -0.244233 -0.552872
vn -0.796742 -0.243481 -0.5531
vn -0.79667 -0.244233 -0.552872
vn -0.79667 -0.244233 -0.552872
vn -0.79667 -0.244233 -0.552872
vn -0.796598 -0.244985 -0.552643
vn 0.786298 -0.370096 0.494737
vn 0.582805 -0.22789 0.780003
vn 0.581934 -0.230534 0.779876
vn 0.786298 -0.370096 0.494737
vn 0.581934 -0.230534 0.779876
vn 0.855603 -0.430984 0.286698
vn 0.306951 0.950823 -0.041441
vn 0.110279 0.992602 -0.050795
vn 0.17796 0.982889 -0.047532
vn 0.306951 0.950823 -0.041441
vn 0.17796 0.982889 -0.047532
vn 0.308191 0.950463 -0.040488
vn 0.087126 -0.994676 0.055032
vn 0.087126 -0.994676 0.055032
vn 0.087126 -0.994676 0.055032
vn -0.086116 0.996123 0.017977
vn 0.256996 0.882564 0.393744
vn -0.07449 0.865382 -0.495545
vn -0.558218 0.610415 -0.561949
vn -0.07449 0.865382 -0.495545
vn -0.07449 0.865382 -0.495545
vn 0.256996 0.882564 0.393744
vn 0.256996 0.882564 0.393744
vn -0.042101 0.48064 0.875907
vn 0.302442 0.697138 0.650021
vn 0.302442 0.697138 0.650021
vn 0.69492 0.42869 0.577331
vn -0.462234 0.567031 0.681774
vn -0.462234 0.567031 0.681774
vn -0.745756 0.180678 0.641251
vn -0.462234 0.567031 0.681774
vn -0.050487 0.577865 0.81457
vn 0.356892 0.638658 0.681721
vn 0.039129 -0.457061 -0.888574
vn 0.039129 -0.457061 -0.888574
vn 0.039129 -0.457061 -0.888574
vn -0.489831 0.48801 0.722435
vn -0.489831 0.48801 0.722435
vn -0.706327 0.058847 0.705436
vn -0.489831 0.48801 0.722435
vn -0.075616 0.569825 0.81828
vn 0.302442 0.697138 0.650021
vn 0.040236 -0.46078 -0.886602
vn 0.040236 -0.46078 -0.886602
vn 0.040236 -0.46078 -0.886602
vn 0.356892 0.638658 0.681721
vn 0.356892 0.638658 0.681721
vn 0.703073 0.307433 0.641228

# body, 12 grouped triangles

usemtl rbot006
o body
g body

f 3/1/1 2/2/2 1/3/3
f 6/4/4 5/5/5 4/6/6
f 3/7/7 1/8/8 6/9/9
f 3/10/10 6/11/11 4/12/12
f 2/13/13 5/14/14 6/15/15
f 2/16/16 6/17/17 1/18/18
f 3/19/19 4/20/20 5/21/21
f 3/22/22 5/23/23 2/24/24
f 9/25/25 8/26/26 7/27/27
f 10/28/28 9/29/29 7/30/30
f 8/31/31 10/32/32 7/33/33
f 9/34/34 10/35/35 8/36/36
# claws, 8 grouped triangles

usemtl rbot009
o claws
g claws

f 13/37/37 12/38/38 11/39/39
f 16/40/40 15/41/41 14/42/42
f 15/43/43 16/44/44 17/45/45
f 18/46/46 13/47/47 11/48/48
f 12/49/49 18/50/50 11/51/51
f 18/52/52 12/53/53 13/54/54
f 15/55/55 17/56/56 14/57/57
f 17/58/58 16/59/59 14/60/60
