# Wavefront OBJ file
# Exported by Misfit Model 3D 1.3.8
# Mon Apr 03 18:52:57 2023

mtllib Medium_Lifter.mtl

# 43 Vertices
v 2.339996 -2.027 0.822
v 0.0 -0.176 -2.506
v 0.0 -0.782 2.506
v -2.339996 -2.027 0.822
v 0.000732 2.027 0.837
v -1.525482 1.258 -2.052
v 1.525482 1.258 -2.052
v 1.546356 -0.421 0.472
v 1.253464 0.677 -0.433
v 0.984878 0.624 0.365
v 3.402374 1.325 2.377
v 2.985016 1.345 2.071
v 2.975235 1.328 1.76
v 2.299881 1.462 3.108
v 4.822937 1.241 3.108
v 3.065994 1.302 1.429
v 3.61879 2.008 2.745
v 4.222122 2.304 2.598
v 4.449997 1.794 3.251
v 3.622894 -0.973 4.31
v 2.920273 1.819 3.319
v 3.382919 2.227 2.666
v 2.658142 -1.177 4.468
v 2.535492 2.302 2.666
v 5.00502 2.097 2.67
v -1.541245 -0.416 0.477
v -0.98085 0.626 0.371
v -1.249008 0.679 -0.426
v -2.965149 1.328 1.76
v -2.974915 1.345 2.071
v -3.392273 1.325 2.377
v -3.055893 1.302 1.429
v -4.81282 1.241 3.108
v -2.28978 1.462 3.108
v -3.608673 2.008 2.745
v -3.612762 -0.973 4.31
v -4.439896 1.794 3.251
v -4.212006 2.304 2.598
v -2.648041 -1.177 4.468
v -3.372818 2.227 2.666
v -2.910172 1.819 3.319
v -2.525375 2.301 2.666
v -4.994919 2.097 2.67

# 150 Texture Coordinates
vt 0.512619 -0.74144
vt 0.512619 1.276031
vt 1.430054 -0.063492
vt -0.4048 -0.063492
vt 0.512619 1.276031
vt 0.512619 -0.74144
vt 1.110703 1.093414
vt -0.085449 1.093414
vt 0.512909 -0.069702
vt 0.512619 1.276031
vt 1.110703 1.093414
vt 1.430054 -0.063492
vt 0.512619 1.276031
vt -0.4048 -0.063492
vt -0.085449 1.093414
vt 1.430054 -0.063492
vt 1.110703 1.093414
vt 0.512909 -0.069702
vt 0.512909 -0.069702
vt -0.085449 1.093414
vt -0.4048 -0.063492
vt 0.376846 0.779236
vt 0.535934 0.868774
vt 0.059341 0.788605
vt 0.581955 0.221985
vt 0.396622 0.168426
vt 0.952393 0.065598
vt 0.535934 0.868774
vt 0.581955 0.221985
vt 0.952393 0.065598
vt 0.535934 0.868774
vt 0.952393 0.065598
vt 0.059341 0.788605
vt 0.376846 0.779236
vt 0.059341 0.788605
vt 0.952393 0.065598
vt 0.376846 0.779236
vt 0.952393 0.065598
vt 0.396622 0.168426
vt 0.376846 0.779236
vt 0.396622 0.168426
vt 0.581955 0.221985
vt 0.376846 0.779236
vt 0.581955 0.221985
vt 0.535934 0.868774
vt 0.318787 0.879501
vt 0.961411 0.120483
vt 0.038574 0.120483
vt 0.318787 0.879501
vt 0.038574 0.120483
vt 0.520981 0.284698
vt 0.318787 0.879501
vt 0.520981 0.284698
vt 0.961411 0.120483
vt 0.961411 0.120483
vt 0.520981 0.284698
vt 0.038574 0.120483
vt 0.81485 0.909439
vt 0.980331 0.820129
vt 0.318619 0.829758
vt 0.455246 0.108627
vt 0.909805 0.211365
vt 0.739105 0.264938
vt 0.81485 0.909439
vt 0.318619 0.829758
vt 0.455246 0.108627
vt 0.81485 0.909439
vt 0.455246 0.108627
vt 0.739105 0.264938
vt 0.980331 0.820129
vt 0.909805 0.211365
vt 0.455246 0.108627
vt 0.980331 0.820129
vt 0.455246 0.108627
vt 0.318619 0.829758
vt 0.81485 0.909439
vt 0.739105 0.264938
vt 0.909805 0.211365
vt 0.81485 0.909439
vt 0.909805 0.211365
vt 0.980331 0.820129
vt 0.961899 0.120483
vt 0.039063 0.120483
vt 0.681686 0.879501
vt 0.479492 0.284698
vt 0.961899 0.120483
vt 0.681686 0.879501
vt 0.039063 0.120483
vt 0.479492 0.284698
vt 0.681686 0.879501
vt 0.961899 0.120483
vt 0.479492 0.284698
vt 0.039063 0.120483
vt 0.431457 1.161484
vt 1.45755 -0.175644
vt -0.002167 0.158005
vt 1.215225 -0.283493
vt 0.574081 1.166885
vt -0.141144 0.220917
vt 0.545822 0.023224
vt 0.514374 0.793487
vt 0.19931 0.956101
vt 0.506348 0.020065
vt 0.82695 0.98764
vt 0.533585 0.827652
vt 0.166672 0.99025
vt 0.533585 0.827652
vt 0.82695 0.98764
vt 0.545822 0.023224
vt 0.19931 0.956101
vt 0.805115 0.955994
vt 0.545822 0.023224
vt 0.805115 0.955994
vt 0.514374 0.793487
vt 0.19931 0.956101
vt 0.514374 0.793487
vt 0.805115 0.955994
vt 0.506348 0.020065
vt 0.166672 0.99025
vt 0.82695 0.98764
vt 0.506348 0.020065
vt 0.533585 0.827652
vt 0.166672 0.99025
vt 0.836441 0.953919
vt 0.545746 0.790619
vt 0.640778 0.02034
vt 0.495773 0.782929
vt 0.232574 0.951248
vt 0.482712 -0.023758
vt 0.232574 0.951248
vt 0.495773 0.782929
vt 0.814789 0.952042
vt 0.229019 0.952301
vt 0.836441 0.953919
vt 0.640778 0.02034
vt 0.545746 0.790619
vt 0.229019 0.952301
vt 0.640778 0.02034
vt 0.229019 0.952301
vt 0.545746 0.790619
vt 0.836441 0.953919
vt 0.232574 0.951248
vt 0.814789 0.952042
vt 0.482712 -0.023758
vt 0.814789 0.952042
vt 0.495773 0.782929
vt 0.482712 -0.023758
vt 0.0 1.0
vt 0.0 0.0
vt 1.0 0.0

# 150 Vertex Normals
vn 0.0 -0.99277 -0.120036
vn 0.0 -0.856947 -0.515405
vn 0.055069 -0.855647 -0.514623
vn -0.055069 -0.855647 -0.514623
vn 0.0 -0.856947 -0.515405
vn 0.0 -0.99277 -0.120036
vn 0.387309 0.818808 -0.423728
vn -0.387222 0.818909 -0.423613
vn 0.00006 0.852181 0.523247
vn 0.0 -0.671209 -0.741268
vn 0.725746 0.174023 -0.665589
vn 0.699147 -0.620511 -0.355189
vn 0.0 -0.671209 -0.741268
vn -0.699178 -0.620538 -0.355081
vn -0.725751 0.17414 -0.665553
vn 0.971744 0.195936 0.131614
vn 0.771192 0.543228 -0.331913
vn 0.60702 0.742696 0.282718
vn -0.606886 0.7428 0.282732
vn -0.771143 0.543368 -0.331797
vn -0.971696 0.196143 0.131665
vn -0.786402 -0.370085 0.49458
vn -0.824258 -0.474506 -0.308938
vn -0.855874 -0.430515 0.286596
vn -0.17817 0.982852 -0.047512
vn -0.110773 0.992548 -0.050771
vn 0.089565 0.994339 -0.05717
vn 0.796646 -0.244251 -0.552899
vn 0.796564 -0.245102 -0.55264
vn 0.796646 -0.244251 -0.552899
vn 0.796646 -0.244251 -0.552899
vn 0.796646 -0.244251 -0.552899
vn 0.796727 -0.243399 -0.553157
vn -0.786402 -0.370085 0.49458
vn -0.855874 -0.430515 0.286596
vn -0.582078 -0.230627 0.779742
vn -0.786402 -0.370085 0.49458
vn -0.582078 -0.230627 0.779742
vn -0.58272 -0.228679 0.779835
vn -0.307256 0.950726 -0.041407
vn -0.110773 0.992548 -0.050771
vn -0.17817 0.982852 -0.047512
vn -0.307256 0.950726 -0.041407
vn -0.17817 0.982852 -0.047512
vn -0.307851 0.950573 -0.040481
vn -0.087126 -0.994676 0.055033
vn -0.087126 -0.994676 0.055033
vn -0.087126 -0.994676 0.055033
vn 0.074492 0.865382 -0.495546
vn -0.256993 0.882564 0.393746
vn 0.086118 0.996123 0.017976
vn 0.074492 0.865382 -0.495546
vn 0.074492 0.865382 -0.495546
vn 0.558217 0.610412 -0.561953
vn 0.0421 0.480638 0.875908
vn -0.256993 0.882564 0.393746
vn -0.256993 0.882564 0.393746
vn 0.824187 -0.474674 -0.308871
vn 0.786298 -0.370096 0.494737
vn 0.855603 -0.430984 0.286698
vn -0.089562 0.994339 -0.057166
vn 0.17796 0.982889 -0.047532
vn 0.110279 0.992602 -0.050795
vn -0.79667 -0.244234 -0.552872
vn -0.796742 -0.243481 -0.5531
vn -0.79667 -0.244234 -0.552872
vn -0.79667 -0.244234 -0.552872
vn -0.79667 -0.244234 -0.552872
vn -0.796597 -0.244986 -0.552643
vn 0.786298 -0.370096 0.494737
vn 0.582806 -0.227888 0.780003
vn 0.581934 -0.230533 0.779876
vn 0.786298 -0.370096 0.494737
vn 0.581934 -0.230533 0.779876
vn 0.855603 -0.430984 0.286698
vn 0.306951 0.950823 -0.041441
vn 0.110279 0.992602 -0.050795
vn 0.17796 0.982889 -0.047532
vn 0.306951 0.950823 -0.041441
vn 0.17796 0.982889 -0.047532
vn 0.308191 0.950463 -0.040488
vn 0.087126 -0.994676 0.055032
vn 0.087126 -0.994676 0.055032
vn 0.087126 -0.994676 0.055032
vn -0.086116 0.996123 0.017978
vn 0.256996 0.882563 0.393745
vn -0.07449 0.865383 -0.495544
vn -0.558218 0.610415 -0.561949
vn -0.07449 0.865383 -0.495544
vn -0.07449 0.865383 -0.495544
vn 0.256996 0.882563 0.393745
vn 0.256996 0.882563 0.393745
vn -0.0421 0.480639 0.875908
vn -0.30458 0.814545 0.493708
vn -0.758431 0.436117 0.484339
vn -0.00001 0.5108 0.859699
vn 0.758563 0.435919 0.484311
vn 0.304669 0.814546 0.493652
vn -0.00001 0.5108 0.859699
vn -0.694938 0.428682 0.577315
vn -0.302453 0.697137 0.650017
vn -0.302453 0.697137 0.650017
vn 0.745755 0.180679 0.641252
vn 0.46263 0.566653 0.68182
vn 0.46263 0.566653 0.68182
vn -0.356195 0.638542 0.682194
vn 0.051038 0.577608 0.814717
vn 0.46263 0.566653 0.68182
vn -0.03913 -0.457062 -0.888574
vn -0.03913 -0.457062 -0.888574
vn -0.03913 -0.457062 -0.888574
vn 0.706323 0.058857 0.705438
vn 0.489828 0.488013 0.722434
vn 0.489828 0.488013 0.722434
vn -0.302453 0.697137 0.650017
vn 0.075608 0.569827 0.818279
vn 0.489828 0.488013 0.722434
vn -0.040772 -0.46068 -0.886629
vn -0.040772 -0.46068 -0.886629
vn -0.040772 -0.46068 -0.886629
vn -0.702734 0.307528 0.641554
vn -0.356195 0.638542 0.682194
vn -0.356195 0.638542 0.682194
vn 0.302442 0.697138 0.650021
vn 0.302442 0.697138 0.650021
vn 0.69492 0.42869 0.577331
vn -0.462233 0.567031 0.681775
vn -0.462233 0.567031 0.681775
vn -0.745755 0.180679 0.641252
vn -0.462233 0.567031 0.681775
vn -0.050487 0.577864 0.81457
vn 0.356892 0.638658 0.681721
vn 0.039129 -0.457062 -0.888574
vn 0.039129 -0.457062 -0.888574
vn 0.039129 -0.457062 -0.888574
vn -0.489831 0.48801 0.722434
vn -0.489831 0.48801 0.722434
vn -0.706327 0.058847 0.705436
vn -0.489831 0.48801 0.722434
vn -0.075616 0.569825 0.81828
vn 0.302442 0.697138 0.650021
vn 0.040236 -0.46078 -0.886602
vn 0.040236 -0.46078 -0.886602
vn 0.040236 -0.46078 -0.886602
vn 0.356892 0.638658 0.681721
vn 0.356892 0.638658 0.681721
vn 0.703072 0.307433 0.641229
vn 0.0 -0.239763 -0.970831
vn -0.282835 0.389659 -0.876453
vn 0.282835 0.389659 -0.876453

# body, 31 grouped triangles

usemtl rbot006
o body
g body

f 3/1/1 2/2/2 1/3/3
f 4/4/4 2/5/5 3/6/6
f 7/7/7 6/8/8 5/9/9
f 2/10/10 7/11/11 1/12/12
f 2/13/13 4/14/14 6/15/15
f 1/16/16 7/17/17 5/18/18
f 5/19/19 6/20/20 4/21/21
f 10/22/22 9/23/23 8/24/24
f 13/25/25 12/26/26 11/27/27
f 9/28/28 13/29/29 11/30/30
f 9/31/31 11/32/32 8/33/33
f 10/34/34 8/35/35 11/36/36
f 10/37/37 11/38/38 12/39/39
f 10/40/40 12/41/41 13/42/42
f 10/43/43 13/44/44 9/45/45
f 16/46/46 15/47/47 14/48/48
f 16/49/49 14/50/50 17/51/51
f 16/52/52 17/53/53 15/54/54
f 15/55/55 17/56/56 14/57/57
f 28/58/58 27/59/59 26/60/60
f 31/61/61 30/62/62 29/63/63
f 28/64/64 26/65/65 31/66/66
f 28/67/67 31/68/68 29/69/69
f 27/70/70 30/71/71 31/72/72
f 27/73/73 31/74/74 26/75/75
f 28/76/76 29/77/77 30/78/78
f 28/79/79 30/80/80 27/81/81
f 34/82/82 33/83/83 32/84/84
f 35/85/85 34/86/86 32/87/87
f 33/88/88 35/89/89 32/90/90
f 34/91/91 35/92/92 33/93/93
# face, 2 grouped triangles

usemtl rbot008
o face
g face

f 5/94/94 4/95/95 3/96/96
f 1/97/97 5/98/98 3/99/99
# claws, 16 grouped triangles

usemtl rbot009
o claws
g claws

f 20/100/100 19/101/101 18/102/102
f 23/103/103 22/104/104 21/105/105
f 24/106/106 21/107/107 22/108/108
f 20/109/109 18/110/110 25/111/111
f 20/112/112 25/113/113 19/114/114
f 18/115/115 19/116/116 25/117/117
f 23/118/118 24/119/119 22/120/120
f 23/121/121 21/122/122 24/123/123
f 38/124/124 37/125/125 36/126/126
f 41/127/127 40/128/128 39/129/129
f 40/130/130 41/131/131 42/132/132
f 43/133/133 38/134/134 36/135/135
f 37/136/136 43/137/137 36/138/138
f 43/139/139 37/140/140 38/141/141
f 40/142/142 42/143/143 39/144/144
f 42/145/145 41/146/146 39/147/147
# thruster, 1 grouped triangles

usemtl flat193
o thruster
g thruster

f 2/148/148 6/149/149 7/150/150
