# Wavefront OBJ file
# Exported by Misfit Model 3D 1.3.8
# Mon Apr 03 19:36:38 2023

mtllib Medium_Lifter_RightArm.mtl

# 18 Vertices
v 0.31947 -0.780083 0.316721
v 0.026578 0.317917 -0.588279
v -0.242008 0.264917 0.209721
v 2.175488 0.965917 2.221721
v 1.75813 0.985917 1.915721
v 1.748349 0.968917 1.604721
v 1.072995 1.102917 2.952721
v 3.596051 0.881917 2.952721
v 1.839108 0.942917 1.273721
v 2.391904 1.648917 2.589721
v 2.995236 1.944917 2.442721
v 3.223111 1.434917 3.095721
v 2.396008 -1.332083 4.154721
v 1.693387 1.459917 3.163721
v 2.156033 1.867917 2.510721
v 1.431256 -1.536083 4.312721
v 1.308606 1.942917 2.510721
v 3.778134 1.737917 2.514721

# 60 Texture Coordinates
vt 0.376846 0.779236
vt 0.535934 0.868774
vt 0.059341 0.788605
vt 0.581955 0.221985
vt 0.396622 0.168426
vt 0.952393 0.065598
vt 0.535934 0.868774
vt 0.581955 0.221985
vt 0.952393 0.065598
vt 0.535934 0.868774
vt 0.952393 0.065598
vt 0.059341 0.788605
vt 0.376846 0.779236
vt 0.059341 0.788605
vt 0.952393 0.065598
vt 0.376846 0.779236
vt 0.952393 0.065598
vt 0.396622 0.168426
vt 0.376846 0.779236
vt 0.396622 0.168426
vt 0.581955 0.221985
vt 0.376846 0.779236
vt 0.581955 0.221985
vt 0.535934 0.868774
vt 0.318787 0.879501
vt 0.961411 0.120483
vt 0.038574 0.120483
vt 0.318787 0.879501
vt 0.038574 0.120483
vt 0.520981 0.284698
vt 0.318787 0.879501
vt 0.520981 0.284698
vt 0.961411 0.120483
vt 0.961411 0.120483
vt 0.520981 0.284698
vt 0.038574 0.120483
vt 0.545822 0.023224
vt 0.514374 0.793487
vt 0.19931 0.956101
vt 0.506348 0.020065
vt 0.82695 0.98764
vt 0.533585 0.827652
vt 0.166672 0.99025
vt 0.533585 0.827652
vt 0.82695 0.98764
vt 0.545822 0.023224
vt 0.19931 0.956101
vt 0.805115 0.955994
vt 0.545822 0.023224
vt 0.805115 0.955994
vt 0.514374 0.793487
vt 0.19931 0.956101
vt 0.514374 0.793487
vt 0.805115 0.955994
vt 0.506348 0.020065
vt 0.166672 0.99025
vt 0.82695 0.98764
vt 0.506348 0.020065
vt 0.533585 0.827652
vt 0.166672 0.99025

# 60 Vertex Normals
vn -0.786402 -0.370085 0.49458
vn -0.824258 -0.474506 -0.308939
vn -0.855874 -0.430515 0.286596
vn -0.17817 0.982852 -0.047512
vn -0.110773 0.992548 -0.050771
vn 0.089565 0.994339 -0.05717
vn 0.796646 -0.244251 -0.552899
vn 0.796564 -0.245103 -0.55264
vn 0.796646 -0.244251 -0.552899
vn 0.796646 -0.244251 -0.552899
vn 0.796646 -0.244251 -0.552899
vn 0.796727 -0.243399 -0.553157
vn -0.786402 -0.370085 0.49458
vn -0.855874 -0.430515 0.286596
vn -0.582078 -0.230626 0.779741
vn -0.786402 -0.370085 0.49458
vn -0.582078 -0.230626 0.779741
vn -0.582721 -0.228678 0.779835
vn -0.307256 0.950726 -0.041407
vn -0.110773 0.992548 -0.050771
vn -0.17817 0.982852 -0.047512
vn -0.307256 0.950726 -0.041407
vn -0.17817 0.982852 -0.047512
vn -0.30785 0.950573 -0.040481
vn -0.087126 -0.994676 0.055033
vn -0.087126 -0.994676 0.055033
vn -0.087126 -0.994676 0.055033
vn 0.074492 0.865382 -0.495546
vn -0.256993 0.882564 0.393746
vn 0.086118 0.996123 0.017976
vn 0.074492 0.865382 -0.495546
vn 0.074492 0.865382 -0.495546
vn 0.558217 0.610412 -0.561953
vn 0.0421 0.480638 0.875908
vn -0.256993 0.882564 0.393746
vn -0.256993 0.882564 0.393746
vn -0.694939 0.428682 0.577315
vn -0.302453 0.697137 0.650017
vn -0.302453 0.697137 0.650017
vn 0.745756 0.180678 0.641252
vn 0.46263 0.566653 0.681819
vn 0.46263 0.566653 0.681819
vn -0.356195 0.638542 0.682194
vn 0.051038 0.577609 0.814717
vn 0.46263 0.566653 0.681819
vn -0.03913 -0.457062 -0.888574
vn -0.03913 -0.457062 -0.888574
vn -0.03913 -0.457062 -0.888574
vn 0.706323 0.058857 0.705438
vn 0.489828 0.488013 0.722434
vn 0.489828 0.488013 0.722434
vn -0.302453 0.697137 0.650017
vn 0.075608 0.569828 0.818279
vn 0.489828 0.488013 0.722434
vn -0.040772 -0.46068 -0.886629
vn -0.040772 -0.46068 -0.886629
vn -0.040772 -0.46068 -0.886629
vn -0.702734 0.307528 0.641554
vn -0.356195 0.638542 0.682194
vn -0.356195 0.638542 0.682194

# body, 12 grouped triangles

usemtl rbot006
o body
g body

f 3/1/1 2/2/2 1/3/3
f 6/4/4 5/5/5 4/6/6
f 2/7/7 6/8/8 4/9/9
f 2/10/10 4/11/11 1/12/12
f 3/13/13 1/14/14 4/15/15
f 3/16/16 4/17/17 5/18/18
f 3/19/19 5/20/20 6/21/21
f 3/22/22 6/23/23 2/24/24
f 9/25/25 8/26/26 7/27/27
f 9/28/28 7/29/29 10/30/30
f 9/31/31 10/32/32 8/33/33
f 8/34/34 10/35/35 7/36/36
# claws, 8 grouped triangles

usemtl rbot009
o claws
g claws

f 13/37/37 12/38/38 11/39/39
f 16/40/40 15/41/41 14/42/42
f 17/43/43 14/44/44 15/45/45
f 13/46/46 11/47/47 18/48/48
f 13/49/49 18/50/50 12/51/51
f 11/52/52 12/53/53 18/54/54
f 16/55/55 17/56/56 15/57/57
f 16/58/58 14/59/59 17/60/60
