# Wavefront OBJ file
# Exported by Misfit Model 3D 1.3.8
# Fri Apr 07 22:37:46 2023

mtllib Miniboss_Body.mtl

# 40 Vertices
v 4.697678 2.074 0.922
v 1.92215 3.095 0.922
v 1.565887 3.226 0.922
v 4.697678 1.39 -2.313
v 1.565887 3.215 -2.313
v 3.843063 4.492 -0.793
v 3.152451 2.651 0.039
v 2.562881 2.866 -1.241
v 3.742004 2.437 -1.241
v -0.263061 3.215 -2.313
v -4.697678 2.074 0.922
v -1.565887 3.226 0.922
v -2.905807 -0.289 2.766
v -2.422867 2.086 1.425
v -3.022827 1.005 1.951
v -3.301483 2.672 3.085
v -3.581589 2.002 1.217
v -1.565887 3.215 -2.313
v -3.843948 4.491 -0.793
v -3.742889 2.436 -1.241
v -2.563766 2.865 -1.241
v -3.153336 2.65 0.039
v -4.697678 1.39 -2.313
v 2.905807 -0.289 2.766
v -4.697678 -0.289 1.485
v 2.484024 2.082 1.414
v 3.088074 0.993 1.943
v 3.42186 0.391 2.235
v 3.611176 -0.289 2.262
v 3.650635 1.997 1.204
v 3.368622 2.672 3.085
v 4.697678 -0.289 1.485
v -4.697678 -0.654 -3.085
v -2.315735 -4.492 0.602
v 4.697678 -0.654 -3.085
v 2.315735 -4.492 0.602
v -1.824371 -1.963 1.93
v -2.938065 -0.771 2.536
v 3.039688 -0.771 2.536
v 1.925995 -1.963 1.93

# 162 Texture Coordinates
vt 1.391708 0.923035
vt 0.797226 0.287598
vt 0.864853 0.287598
vt 1.391708 0.923035
vt 0.864853 0.287598
vt 1.391708 0.287598
vt 1.391708 0.923035
vt 0.797226 0.923035
vt 0.797226 0.287598
vt 0.797226 0.287598
vt 0.797226 0.923035
vt 0.450058 0.923035
vt -0.051575 0.56749
vt 0.202759 1.25795
vt -0.391708 1.031647
vt 0.202759 0.923035
vt -0.391708 0.287598
vt 0.202759 0.287598
vt 0.202759 0.923035
vt -0.391708 0.923035
vt -0.391708 0.287598
vt 0.797226 0.287598
vt 0.450058 0.923035
vt 0.202759 0.923035
vt 0.797226 0.287598
vt 0.202759 0.923035
vt 0.202759 0.287598
vt 1.051575 0.56749
vt 0.797226 1.25795
vt 0.202759 1.25795
vt 1.051575 0.56749
vt 0.202759 1.25795
vt -0.051575 0.56749
vt -0.391708 1.031647
vt -0.391708 0.56749
vt -0.051575 0.56749
vt 1.149536 0.701172
vt 1.086182 0.819367
vt 0.971512 1.033249
vt 1.149536 0.701172
vt 0.971512 1.033249
vt 0.864853 1.232208
vt 1.149536 0.701172
vt 0.864853 1.232208
vt 0.797226 1.25795
vt 1.149536 0.701172
vt 0.797226 1.25795
vt 1.051575 0.56749
vt 1.149536 0.701172
vt 1.051575 0.56749
vt 1.185471 0.56749
vt 1.149536 0.701172
vt 1.391708 1.031647
vt 0.864853 1.232208
vt 1.149536 0.701172
vt 0.864853 1.232208
vt 0.971512 1.033249
vt 1.149536 0.701172
vt 0.971512 1.033249
vt 1.086182 0.819367
vt 1.391708 1.031647
vt 1.149536 0.701172
vt 1.185471 0.56749
vt 1.391708 1.031647
vt 1.185471 0.56749
vt 1.391708 0.56749
vt -0.391708 0.495865
vt -0.391708 0.897339
vt 0.202759 1.255798
vt 0.06041 -0.25795
vt -0.051575 0.56749
vt -0.391708 0.56749
vt 0.06041 -0.25795
vt -0.391708 0.56749
vt -0.391708 0.495865
vt 1.391708 0.495865
vt 0.797226 1.255798
vt 1.391708 0.897339
vt 1.391708 0.56749
vt 1.185471 0.56749
vt 1.051575 0.56749
vt 1.391708 0.56749
vt 1.051575 0.56749
vt 0.939575 -0.25795
vt 1.391708 0.495865
vt 1.391708 0.56749
vt 0.939575 -0.25795
vt 0.939575 -0.25795
vt 1.051575 0.56749
vt -0.051575 0.56749
vt 0.939575 -0.25795
vt -0.051575 0.56749
vt 0.06041 -0.25795
vt 0.294724 1.031647
vt 0.187943 0.56749
vt 1.055328 0.495865
vt 0.294724 1.031647
vt 1.055328 0.495865
vt 0.908829 0.897339
vt -0.391708 0.495865
vt -0.391708 0.56749
vt -0.391708 1.031647
vt -0.391708 0.495865
vt -0.391708 1.031647
vt -0.391708 0.897339
vt 1.391708 0.495865
vt 0.939575 -0.25795
vt 0.06041 -0.25795
vt 1.391708 0.495865
vt 0.06041 -0.25795
vt -0.391708 0.495865
vt 0.797226 1.255798
vt 1.391708 0.495865
vt -0.391708 0.495865
vt 0.797226 1.255798
vt -0.391708 0.495865
vt 0.202759 1.255798
vt 0.797226 1.255798
vt 0.202759 1.255798
vt 0.450058 1.255798
vt 0.81369 0.782516
vt 1.0 0.988205
vt 0.0 0.988205
vt 0.81369 0.782516
vt 0.0 0.988205
vt 0.186295 0.782516
vt 0.0 1.0
vt 0.0 0.0
vt 1.0 0.0
vt 0.0 1.0
vt 0.0 0.0
vt 1.0 0.0
vt 0.0 1.0
vt 0.0 0.0
vt 1.0 0.0
vt 0.0 1.0
vt 0.0 0.0
vt 1.0 0.0
vt 0.0 1.0
vt 0.0 0.0
vt 1.0 0.0
vt 0.0 1.0
vt 0.0 0.0
vt 1.0 0.0
vt 0.0 1.0
vt 0.0 0.0
vt 1.0 0.0
vt 0.0 1.0
vt 0.0 0.0
vt 1.0 0.0
vt 0.0 1.0
vt 0.0 0.0
vt 1.0 0.0
vt 0.0 1.0
vt 0.0 0.0
vt 1.0 0.0
vt 0.0 1.0
vt 0.0 0.0
vt 1.0 0.0
vt 0.0 1.0
vt 0.0 0.0
vt 1.0 0.0

# 162 Vertex Normals
vn 0.582996 0.746697 -0.320248
vn 0.178941 0.921104 0.345758
vn 0.500438 0.82762 0.254177
vn 0.582996 0.746697 -0.320248
vn 0.500438 0.82762 0.254177
vn 0.7863 0.388572 0.480358
vn 0.582996 0.746697 -0.320248
vn 0.178637 0.659024 -0.730599
vn 0.178941 0.921104 0.345758
vn 0.178941 0.921104 0.345758
vn 0.178637 0.659024 -0.730599
vn 0.0 0.999994 -0.0034
vn -0.246371 -0.037882 0.968435
vn -0.124084 0.786105 0.60551
vn -0.78044 0.539924 0.315271
vn -0.211893 0.880404 -0.424252
vn -0.78044 0.539924 0.315271
vn -0.124084 0.786105 0.60551
vn -0.211893 0.880404 -0.424252
vn -0.722843 0.509458 -0.466852
vn -0.78044 0.539924 0.315271
vn 0.178941 0.921104 0.345758
vn 0.0 0.999994 -0.0034
vn -0.211893 0.880404 -0.424252
vn 0.178941 0.921104 0.345758
vn -0.211893 0.880404 -0.424252
vn -0.124084 0.786105 0.60551
vn 0.244332 0.138671 0.959725
vn 0.178941 0.921104 0.345758
vn -0.124084 0.786105 0.60551
vn 0.244332 0.138671 0.959725
vn -0.124084 0.786105 0.60551
vn -0.246371 -0.037882 0.968435
vn -0.78044 0.539924 0.315271
vn -0.861962 -0.220474 0.456522
vn -0.246371 -0.037882 0.968435
vn -0.88988 -0.353774 0.288024
vn -0.870245 -0.288923 0.398995
vn -0.877643 -0.308792 0.366593
vn -0.88988 -0.353774 0.288024
vn -0.877643 -0.308792 0.366593
vn -0.888401 -0.346748 0.300848
vn 0.620672 0.467158 0.629706
vn 0.500438 0.82762 0.254177
vn 0.178941 0.921104 0.345758
vn 0.620672 0.467158 0.629706
vn 0.178941 0.921104 0.345758
vn 0.244332 0.138671 0.959725
vn 0.620672 0.467158 0.629706
vn 0.244332 0.138671 0.959725
vn 0.570807 0.190483 0.798684
vn 0.620672 0.467158 0.629706
vn 0.7863 0.388572 0.480358
vn 0.500438 0.82762 0.254177
vn 0.620672 0.467158 0.629706
vn 0.500438 0.82762 0.254177
vn 0.688022 0.634824 -0.351603
vn 0.620672 0.467158 0.629706
vn 0.688022 0.634824 -0.351603
vn 0.999721 0.020122 -0.012334
vn 0.7863 0.388572 0.480358
vn 0.620672 0.467158 0.629706
vn 0.570807 0.190483 0.798684
vn 0.7863 0.388572 0.480358
vn 0.570807 0.190483 0.798684
vn 0.861981 -0.220475 0.456486
vn -0.521839 0.010582 -0.852979
vn -0.722843 0.509458 -0.466852
vn -0.211893 0.880404 -0.424252
vn -0.537938 -0.545139 0.642998
vn -0.246371 -0.037882 0.968435
vn -0.861962 -0.220474 0.456522
vn -0.44381 -0.893494 0.068568
vn -0.861962 -0.220474 0.456522
vn -0.901864 -0.37506 -0.214411
vn 0.538597 -0.206422 -0.816886
vn 0.178637 0.659024 -0.730599
vn 0.582996 0.746697 -0.320248
vn 0.552183 -0.775635 0.305753
vn 0.00001 -1.0 0.0
vn 0.203772 -0.746528 0.633382
vn 0.782479 -0.464773 0.414382
vn 0.246374 -0.05277 0.967737
vn 0.402269 -0.540535 0.73892
vn 0.773367 -0.508582 -0.37848
vn 0.782479 -0.464773 0.414382
vn 0.403826 -0.74451 0.531629
vn 0.402269 -0.540535 0.73892
vn 0.246374 -0.05277 0.967737
vn -0.246371 -0.037882 0.968435
vn 0.402269 -0.540535 0.73892
vn -0.246371 -0.037882 0.968435
vn -0.537938 -0.545139 0.642998
vn 0.7863 0.388572 0.480358
vn 0.861981 -0.220475 0.456486
vn 0.960418 -0.047878 -0.274417
vn 0.7863 0.388572 0.480358
vn 0.960418 -0.047878 -0.274417
vn 0.582996 0.746697 -0.320248
vn -0.960418 -0.047878 -0.274417
vn -0.861962 -0.220474 0.456522
vn -0.78044 0.539924 0.315271
vn -0.960418 -0.047878 -0.274417
vn -0.78044 0.539924 0.315271
vn -0.722843 0.509458 -0.466852
vn 0.287029 -0.361097 -0.887256
vn 0.533416 -0.734329 -0.419796
vn -0.345787 -0.752746 -0.560183
vn 0.287029 -0.361097 -0.887256
vn -0.345787 -0.752746 -0.560183
vn -0.285147 -0.121376 -0.950768
vn 0.178637 0.659024 -0.730599
vn 0.058452 -0.244574 -0.967867
vn -0.055946 0.012386 -0.998357
vn 0.178637 0.659024 -0.730599
vn -0.055946 0.012386 -0.998357
vn -0.211893 0.880404 -0.424252
vn 0.0 -1.0 0.0
vn 0.0 -1.0 0.0
vn 0.0 -1.0 0.0
vn -0.0 -0.453186 0.891416
vn 0.0 -0.453186 0.891416
vn -0.0 -0.453186 0.891416
vn -0.0 -0.453186 0.891416
vn -0.0 -0.453186 0.891416
vn -0.0 -0.453186 0.891416
vn -0.762608 0.48136 0.432112
vn -0.762608 0.48136 0.432112
vn -0.762608 0.48136 0.432112
vn 0.075974 0.208818 -0.974999
vn 0.075974 0.208818 -0.974999
vn 0.075974 0.208818 -0.974999
vn 0.890579 -0.138259 0.433305
vn 0.890579 -0.138259 0.433305
vn 0.890579 -0.138259 0.433305
vn 0.831177 -0.210999 0.514416
vn 0.831177 -0.210999 0.514416
vn 0.831177 -0.210999 0.514416
vn -0.91141 -0.324494 0.253053
vn -0.91141 -0.324494 0.253053
vn -0.91141 -0.324494 0.253053
vn -0.007847 0.941629 -0.33656
vn -0.007847 0.941629 -0.33656
vn -0.007847 0.941629 -0.33656
vn -0.075974 0.208818 -0.974999
vn -0.075974 0.208818 -0.974999
vn -0.075974 0.208818 -0.974999
vn -0.890579 -0.138259 0.433305
vn -0.890579 -0.138259 0.433305
vn -0.890579 -0.138259 0.433305
vn 0.762609 0.48136 0.432112
vn 0.762609 0.48136 0.432112
vn 0.762609 0.48136 0.432112
vn 0.911432 -0.324421 0.253067
vn 0.999721 0.020122 -0.012334
vn 0.911432 -0.324421 0.253067
vn 0.688022 0.634824 -0.351603
vn 0.007997 0.941582 -0.336689
vn 0.007997 0.941582 -0.336689
vn -0.870245 -0.288923 0.398995
vn -0.831106 -0.211074 0.5145
vn -0.877643 -0.308792 0.366593

# body, 40 grouped triangles

usemtl body
o body
g body

f 4/1/1 3/2/2 2/3/3
f 4/4/4 2/5/5 1/6/6
f 4/7/7 5/8/8 3/9/9
f 3/10/10 5/11/11 10/12/12
f 13/13/13 12/14/14 11/15/15
f 18/16/16 11/17/17 12/18/18
f 18/19/19 23/20/20 11/21/21
f 3/22/22 10/23/23 18/24/24
f 3/25/25 18/26/26 12/27/27
f 24/28/28 3/29/29 12/30/30
f 24/31/31 12/32/32 13/33/33
f 11/34/34 25/35/35 13/36/36
f 28/37/37 27/38/38 26/39/39
f 28/40/40 26/41/41 2/42/42
f 28/43/43 2/44/44 3/45/45
f 28/46/46 3/47/47 24/48/48
f 28/49/49 24/50/50 29/51/51
f 28/52/52 1/53/53 2/54/54
f 28/55/55 2/56/56 26/57/57
f 28/58/58 26/59/59 27/60/60
f 1/61/61 28/62/62 29/63/63
f 1/64/64 29/65/65 32/66/66
f 33/67/67 23/68/68 18/69/69
f 34/70/70 13/71/71 25/72/72
f 34/73/73 25/74/74 33/75/75
f 35/76/76 5/77/77 4/78/78
f 32/79/79 29/80/80 24/81/81
f 32/82/82 24/83/83 36/84/84
f 35/85/85 32/86/86 36/87/87
f 36/88/88 24/89/89 13/90/90
f 36/91/91 13/92/92 34/93/93
f 1/94/94 32/95/95 35/96/96
f 1/97/97 35/98/98 4/99/99
f 33/100/100 25/101/101 11/102/102
f 33/103/103 11/104/104 23/105/105
f 35/106/106 36/107/107 34/108/108
f 35/109/109 34/110/110 33/111/111
f 5/112/112 35/113/113 33/114/114
f 5/115/115 33/116/116 18/117/117
f 5/118/118 18/119/119 10/120/120
# face, 2 grouped triangles

usemtl face
o face
g face

f 40/121/121 39/122/122 38/123/123
f 40/124/124 38/125/125 37/126/126
# spikes, 12 grouped triangles

usemtl spikes
o spikes
g spikes

f 8/127/127 7/128/128 6/129/129
f 6/130/130 9/131/131 8/132/132
f 6/133/133 7/134/134 9/135/135
f 16/136/136 15/137/137 14/138/138
f 15/139/139 16/140/140 17/141/141
f 17/142/142 16/143/143 14/144/144
f 21/145/145 20/146/146 19/147/147
f 20/148/148 22/149/149 19/150/150
f 19/151/151 22/152/152 21/153/153
f 31/154/154 27/155/155 30/156/156
f 26/157/157 31/158/158 30/159/159
f 27/160/160 31/161/161 26/162/162
