# Wavefront OBJ file
# Exported by Misfit Model 3D 1.3.8
# Wed Apr 05 16:35:31 2023

mtllib SpiderRobot_Body.mtl

# 73 Vertices
v 3.89064 2.850663 3.894
v 2.78038 1.071663 -0.924
v 2.780396 0.007663 -0.924
v 3.89064 2.829663 3.894
v 3.912949 2.885663 3.991
v 3.915176 2.885663 -3.956
v 2.277405 1.980663 -3.107
v 2.165787 1.828663 -3.592
v 2.445877 1.676663 -2.376
v -2.710724 0.007663 -0.924
v -2.710724 1.071663 -0.924
v -3.912231 2.905663 3.861
v -2.343735 1.661663 -2.386
v -3.915176 2.885663 -3.991
v -2.167877 1.944663 -3.086
v -2.041138 1.772663 -3.591
v -1.157944 1.400663 -2.563
v 0.034821 0.539663 -3.148
v 1.2276 1.400663 -2.563
v 3.750656 2.709663 3.894
v 3.54393 2.662663 3.894
v 0.462738 -0.544337 3.894
v 0.688446 -0.318337 3.894
v 0.914154 -0.544337 3.894
v 0.688446 -0.770337 3.894
v -0.84079 -0.544337 3.894
v -0.615082 -0.318337 3.894
v -0.389374 -0.544337 3.894
v -0.615082 -0.770337 3.894
v 3.750656 2.796663 3.894
v 1.2276 -0.031337 2.389
v -1.157944 -0.031337 2.389
v 0.034821 0.539663 2.974
v 0.037384 0.541663 2.972
v 0.032257 0.541663 2.972
v 0.043716 0.544663 2.976
v 0.32959 -0.544337 1.868
v 0.692673 -0.181337 2.237
v 0.692673 -0.181337 3.848
v 0.32959 -0.544337 3.848
v -0.973938 -0.544337 1.868
v -0.610855 -0.181337 2.237
v -0.610855 -0.181337 3.848
v -0.973938 -0.544337 3.848
v 0.026672 0.544663 2.975
v -0.247772 -0.544337 3.848
v -0.247772 -0.544337 1.868
v -0.610855 -0.907337 3.848
v -0.610855 -0.907337 1.498
v 0.692673 -0.907337 3.848
v 0.692673 -0.907337 1.498
v 0.435013 -1.227337 3.165
v 0.07193 -0.864337 3.165
v 0.07193 -0.864337 1.554
v 0.435013 -1.227337 1.185
v -0.291138 -1.227337 3.165
v 0.07193 -1.590337 3.165
v -0.15799 -1.227337 3.212
v 0.067703 -1.001337 3.212
v 0.293411 -1.227337 3.212
v 0.067703 -1.452337 3.212
v 1.055756 -0.544337 3.848
v 1.055756 -0.544337 1.868
v -0.291138 -1.227337 1.185
v 0.07193 -1.590337 0.816
v 0.192184 1.314663 -2.132
v -1.157944 1.400663 2.389
v -0.418625 0.866663 2.751
v 1.2276 1.400663 2.389
v 1.26918 -1.638337 0.754
v -1.168854 -1.638337 0.754
v -1.157944 -0.321337 -2.563
v 1.2276 -0.321337 -2.563

# 318 Texture Coordinates
vt 0.569916 0.566376
vt 0.556519 0.546616
vt -0.110229 -0.436798
vt 0.569916 0.566376
vt -0.110229 -0.436798
vt -0.12413 -0.317551
vt 0.569916 0.566376
vt -0.12413 -0.317551
vt 0.556244 0.548966
vt 0.502472 0.174439
vt 0.602158 0.132568
vt 0.752167 0.524795
vt 0.922195 -0.22731
vt 0.752167 0.524795
vt 0.602158 0.132568
vt 0.922195 -0.22731
vt 0.602158 0.132568
vt 0.709351 0.012024
vt 0.836151 -0.341385
vt 0.752167 0.524795
vt 0.922195 -0.22731
vt 0.464264 0.560883
vt 0.859985 -0.442795
vt 0.873886 -0.562057
vt 0.568985 0.153839
vt 0.494034 0.602539
vt 0.145157 -0.089035
vt 0.568985 0.153839
vt 0.145157 -0.089035
vt 0.431686 0.07515
vt 0.145157 -0.089035
vt 0.494034 0.602539
vt 0.059097 -0.203125
vt 0.637558 0.170273
vt 0.494034 0.602539
vt 0.568985 0.153839
vt 0.796539 -0.308563
vt 0.637558 0.170273
vt 0.568985 0.153839
vt 0.796539 -0.308563
vt 0.568985 0.153839
vt 0.612305 -0.105499
vt 0.502472 0.174439
vt 0.198334 -0.252335
vt 0.505997 -0.118835
vt 0.502472 0.174439
vt 0.505997 -0.118835
vt 0.602158 0.132568
vt 0.431686 0.07515
vt 0.612305 -0.105499
vt 0.568985 0.153839
vt 0.709351 0.012024
vt 0.602158 0.132568
vt 0.505997 -0.118835
vt 0.600784 0.479355
vt 0.575073 0.513596
vt 0.569916 0.566376
vt 0.600784 0.479355
vt 0.569916 0.566376
vt 0.573944 0.523285
vt 0.575073 0.513596
vt 0.556519 0.546616
vt 0.569916 0.566376
vt 0.573944 0.523285
vt 0.569916 0.566376
vt 0.556244 0.548966
vt 0.893509 -0.345947
vt 0.894257 -0.348053
vt 0.655243 -0.306961
vt 0.202057 -0.266937
vt -0.083878 -0.247635
vt -0.082733 -0.245972
vt -0.082733 -0.245972
vt -0.083878 -0.247635
vt -0.083298 -0.247345
vt 0.893707 -0.347611
vt 0.894257 -0.348053
vt 0.893509 -0.345947
vt 0.505997 -0.118835
vt 0.922195 -0.22731
vt 0.709351 0.012024
vt 0.431686 0.07515
vt 0.145157 -0.089035
vt 0.612305 -0.105499
vt -0.082733 -0.245972
vt -0.083298 -0.247345
vt 0.0177 -0.193954
vt -0.082733 -0.245972
vt 0.0177 -0.193954
vt 0.183334 -0.10643
vt -0.082733 -0.245972
vt 0.183334 -0.10643
vt 0.464264 0.560883
vt 0.893707 -0.347611
vt 0.893509 -0.345947
vt 0.600784 0.479355
vt 0.893707 -0.347611
vt 0.600784 0.479355
vt 0.573944 0.523285
vt 0.893707 -0.347611
vt 0.573944 0.523285
vt 0.63652 -0.146469
vt 0.63652 -0.146469
vt 0.573944 0.523285
vt 0.556244 0.548966
vt 0.63652 -0.146469
vt 0.556244 0.548966
vt -0.12413 -0.317551
vt 0.183334 -0.10643
vt 0.859985 -0.442795
vt 0.464264 0.560883
vt 0.202057 -0.266937
vt 0.464264 0.560883
vt 0.873886 -0.562057
vt 0.575073 0.513596
vt 0.655243 -0.306961
vt -0.110229 -0.436798
vt 0.575073 0.513596
vt -0.110229 -0.436798
vt 0.556519 0.546616
vt -0.082733 -0.245972
vt 0.464264 0.560883
vt 0.202057 -0.266937
vt 0.600784 0.479355
vt 0.893509 -0.345947
vt 0.655243 -0.306961
vt 0.600784 0.479355
vt 0.655243 -0.306961
vt 0.575073 0.513596
vt 0.36676 -0.303421
vt 0.752167 0.524795
vt 0.836151 -0.341385
vt 0.198334 -0.252335
vt 0.502472 0.174439
vt 0.752167 0.524795
vt 0.198334 -0.252335
vt 0.752167 0.524795
vt 0.36676 -0.303421
vt 0.059097 -0.203125
vt 0.494034 0.602539
vt 0.473068 -0.290085
vt 0.796539 -0.308563
vt 0.473068 -0.290085
vt 0.494034 0.602539
vt 0.796539 -0.308563
vt 0.494034 0.602539
vt 0.637558 0.170273
vt 0.506042 1.036499
vt 0.298798 0.936874
vt 0.713287 0.936874
vt 0.506042 -0.006836
vt 0.298798 0.092789
vt 0.713287 0.092789
vt 0.5056 -0.006622
vt 0.506042 -0.006836
vt 0.506485 -0.006622
vt 0.028992 0.657547
vt 0.533386 0.863434
vt 0.713287 0.936874
vt 0.028992 0.657547
vt 0.713287 0.936874
vt 0.298798 0.936874
vt 0.983093 0.657547
vt 0.713287 0.936874
vt 0.713287 0.092789
vt 0.427246 0.031036
vt 0.713287 0.092789
vt 0.298798 0.092789
vt 0.713287 0.092789
vt 0.713287 0.936874
vt 0.298798 0.092789
vt 0.298798 0.092789
vt 0.713287 0.936874
vt 0.533386 0.863434
vt 0.427246 0.031036
vt 0.5056 -0.006622
vt 0.506485 -0.006622
vt 0.427246 0.031036
vt 0.506485 -0.006622
vt 0.713287 0.092789
vt 0.298798 0.092789
vt 0.533386 0.863434
vt 0.028992 0.657547
vt 0.296905 0.371414
vt 0.72052 0.371414
vt 0.713287 0.092789
vt 0.296905 0.371414
vt 0.713287 0.092789
vt 0.298798 0.092789
vt 0.028992 0.657547
vt 0.298798 0.936874
vt 0.296905 0.371414
vt 0.72052 0.371414
vt 0.713287 0.936874
vt 0.983093 0.657547
vt 0.506042 1.036499
vt 0.713287 0.936874
vt 0.298798 0.936874
vt 0.72052 0.371414
vt 0.296905 0.371414
vt 0.298798 0.936874
vt 0.72052 0.371414
vt 0.298798 0.936874
vt 0.713287 0.936874
vt 0.969604 1.144272
vt 0.184296 0.902771
vt 0.446106 -0.089478
vt 0.561768 -0.070343
vt 0.787323 0.881424
vt 0.036011 1.084427
vt 0.749985 1.0
vt 0.5 1.0
vt 0.5 0.314377
vt 0.749985 1.0
vt 0.5 0.314377
vt 0.749985 0.157181
vt 0.749985 1.0
vt 0.494263 1.0
vt 0.494263 0.314377
vt 0.749985 1.0
vt 0.494263 0.314377
vt 0.749985 0.157181
vt 0.25 0.157181
vt 0.494263 0.314377
vt 0.494263 1.0
vt 0.25 0.157181
vt 0.494263 1.0
vt 0.25 1.0
vt 0.005722 0.0
vt 0.25 0.157181
vt 0.25 1.0
vt 0.005722 0.0
vt 0.25 1.0
vt 0.005722 1.0
vt 0.749985 0.157181
vt 0.0 0.0
vt 0.999985 1.0
vt 0.749985 0.157181
vt 0.999985 1.0
vt 0.749985 1.0
vt 0.25 0.15416
vt 0.5 0.308319
vt 0.5 0.980713
vt 0.25 0.15416
vt 0.5 0.980713
vt 0.25 0.980713
vt 0.999985 0.980713
vt 0.25 0.980713
vt 0.5 0.980713
vt 0.999985 0.980713
vt 0.5 0.980713
vt 0.749985 0.980713
vt 0.0 0.0
vt 0.25 0.157181
vt 0.25 1.0
vt 0.0 0.0
vt 0.25 1.0
vt 0.999985 1.0
vt 0.749985 0.980713
vt 0.5 0.980713
vt 0.5 0.308319
vt 0.749985 0.980713
vt 0.5 0.308319
vt 0.749985 0.15416
vt 0.25 0.157181
vt 0.5 0.314377
vt 0.5 1.0
vt 0.25 0.157181
vt 0.5 1.0
vt 0.25 1.0
vt 0.005722 1.0
vt 0.25 1.0
vt 0.494263 1.0
vt 0.005722 1.0
vt 0.494263 1.0
vt 0.749985 1.0
vt 0.749985 0.157181
vt 0.005722 0.0
vt 0.005722 1.0
vt 0.749985 0.157181
vt 0.005722 1.0
vt 0.749985 1.0
vt 0.749985 0.15416
vt 0.0 0.0
vt 0.999985 0.980713
vt 0.749985 0.15416
vt 0.999985 0.980713
vt 0.749985 0.980713
vt 0.0 0.0
vt 0.25 0.15416
vt 0.25 0.980713
vt 0.0 0.0
vt 0.25 0.980713
vt 0.999985 0.980713
vt 0.999985 1.0
vt 0.25 1.0
vt 0.5 1.0
vt 0.999985 1.0
vt 0.5 1.0
vt 0.749985 1.0
vt 0.0 1.0
vt 0.0 0.0
vt 1.0 0.0
vt 0.0 1.0
vt 0.0 0.0
vt 1.0 0.0
vt 0.0 1.0
vt 0.0 0.0
vt 1.0 0.0
vt 0.0 1.0
vt 0.0 0.0
vt 1.0 0.0
vt 0.0 1.0
vt 0.0 0.0
vt 1.0 0.0
vt 0.0 1.0
vt 0.0 0.0
vt 1.0 0.0

# 318 Vertex Normals
vn -0.721913 0.691147 0.034012
vn -0.979375 0.052004 0.195243
vn -0.979375 0.052004 0.195243
vn 0.9554 -0.289802 -0.056789
vn 0.837559 -0.543601 0.054696
vn 0.977 0.196111 -0.083734
vn 0.9554 -0.289802 -0.056789
vn 0.977 0.196111 -0.083734
vn 0.977172 -0.052235 -0.205928
vn -0.533281 0.834422 -0.139112
vn -0.418053 0.896159 0.148765
vn -0.418025 0.896154 0.14887
vn -0.178215 0.971127 0.158592
vn -0.418025 0.896154 0.14887
vn -0.418053 0.896159 0.148765
vn 0.977 0.196111 -0.083734
vn 0.956988 -0.112638 -0.267369
vn 0.956988 -0.112638 -0.267369
vn 0.837559 -0.543601 0.054696
vn 0.912359 -0.406933 -0.044798
vn 0.977 0.196111 -0.083734
vn -0.909445 -0.415183 0.023092
vn -0.858321 0.417552 -0.298219
vn -0.862943 -0.505188 0.010731
vn 0.604877 0.789919 0.100751
vn 0.475886 0.873882 -0.099319
vn 0.360646 0.915223 0.179725
vn 0.604877 0.789919 0.100751
vn 0.591497 0.772777 0.230104
vn 0.638786 0.644219 0.420637
vn -0.730723 0.654574 -0.193848
vn -0.909556 -0.414374 -0.031644
vn -0.862943 -0.505188 0.010731
vn 0.533699 0.796166 -0.285106
vn 0.475886 0.873882 -0.099319
vn 0.604877 0.789919 0.100751
vn 0.242201 0.873673 -0.421941
vn 0.533699 0.796166 -0.285106
vn 0.604877 0.789919 0.100751
vn 0.242201 0.873673 -0.421941
vn 0.604877 0.789919 0.100751
vn 0.243892 0.969729 0.01194
vn -0.533281 0.834422 -0.139112
vn 0.242201 0.873673 -0.421941
vn -0.224203 0.966897 -0.121832
vn -0.533281 0.834422 -0.139112
vn -0.224203 0.966897 -0.121832
vn -0.418053 0.896159 0.148765
vn 0.638786 0.644219 0.420637
vn 0.243892 0.969729 0.01194
vn 0.604877 0.789919 0.100751
vn -0.261425 0.86825 0.421662
vn -0.418053 0.896159 0.148765
vn -0.184342 0.982758 -0.014297
vn 0.128738 -0.566169 0.814174
vn 0.457645 -0.713192 0.530959
vn 0.406679 -0.699121 0.588084
vn -0.543725 0.818468 0.18567
vn -0.721913 0.691147 0.034012
vn -0.47336 0.880656 -0.019374
vn 0.457645 -0.713192 0.530959
vn 0.6248 -0.728851 0.280001
vn 0.874361 -0.435865 0.213343
vn -0.47336 0.880656 -0.019374
vn -0.721913 0.691147 0.034012
vn -0.34849 0.903125 -0.250838
vn 0.130274 -0.563558 0.81574
vn -0.017812 -0.322893 0.946268
vn 0.249736 -0.665502 0.703376
vn -0.326969 -0.651661 0.684419
vn -0.017812 -0.322893 0.946268
vn -0.166188 -0.514221 0.841403
vn 0.540588 0.832056 0.124287
vn 0.006877 0.91588 0.401393
vn 0.292346 0.810876 0.506965
vn -0.33678 0.80627 0.48632
vn 0.006877 0.91588 0.401393
vn -0.532032 0.814493 0.231392
vn -0.184342 0.982758 -0.014297
vn -0.178215 0.971127 0.158592
vn -0.261425 0.86825 0.421662
vn 0.638786 0.644219 0.420637
vn 0.360646 0.915223 0.179725
vn 0.243892 0.969729 0.01194
vn 0.540588 0.832056 0.124287
vn 0.292346 0.810876 0.506965
vn 0.248 0.755563 0.606317
vn 0.540588 0.832056 0.124287
vn 0.248 0.755563 0.606317
vn 0.199262 0.974163 0.106307
vn 0.540588 0.832056 0.124287
vn 0.199262 0.974163 0.106307
vn 0.454739 0.888747 -0.057801
vn -0.33678 0.80627 0.48632
vn -0.532032 0.814493 0.231392
vn -0.543725 0.818468 0.18567
vn -0.33678 0.80627 0.48632
vn -0.543725 0.818468 0.18567
vn -0.47336 0.880656 -0.019374
vn -0.33678 0.80627 0.48632
vn -0.47336 0.880656 -0.019374
vn -0.172168 0.961532 0.21404
vn -0.172168 0.961532 0.21404
vn -0.47336 0.880656 -0.019374
vn -0.34849 0.903125 -0.250838
vn -0.172168 0.961532 0.21404
vn -0.34849 0.903125 -0.250838
vn -0.178215 0.971127 0.158592
vn 0.199262 0.974163 0.106307
vn 0.280827 0.959698 -0.010719
vn 0.454739 0.888747 -0.057801
vn -0.326969 -0.651661 0.684419
vn -0.747988 -0.549088 0.372848
vn -0.862943 -0.505188 0.010731
vn 0.457645 -0.713192 0.530959
vn 0.249736 -0.665502 0.703376
vn 0.837559 -0.543601 0.054696
vn 0.457645 -0.713192 0.530959
vn 0.837559 -0.543601 0.054696
vn 0.6248 -0.728851 0.280001
vn -0.166188 -0.514221 0.841403
vn -0.413122 -0.68702 0.597774
vn -0.326969 -0.651661 0.684419
vn 0.128738 -0.566169 0.814174
vn 0.130274 -0.563558 0.81574
vn 0.249736 -0.665502 0.703376
vn 0.128738 -0.566169 0.814174
vn 0.249736 -0.665502 0.703376
vn 0.457645 -0.713192 0.530959
vn 0.26065 -0.745633 -0.613264
vn 0.567101 -0.520568 -0.638283
vn 0.837559 -0.543601 0.054696
vn 0.11309 -0.130881 -0.984927
vn 0.040782 -0.384978 -0.922024
vn 0.261254 -0.546736 -0.795504
vn 0.11309 -0.130881 -0.984927
vn 0.261254 -0.546736 -0.795504
vn 0.26065 -0.745633 -0.613264
vn -0.862943 -0.505188 0.010731
vn -0.734353 -0.529695 -0.424439
vn -0.214042 -0.79056 -0.573761
vn 0.11309 -0.130881 -0.984927
vn -0.214042 -0.79056 -0.573761
vn -0.087709 -0.257645 -0.96225
vn 0.18887 0.32408 -0.926985
vn 0.475397 0.753944 -0.453394
vn 0.533699 0.796166 -0.285106
vn 0.18887 0.32408 -0.926985
vn 0.243892 0.969729 0.01194
vn -0.224203 0.966897 -0.121832
vn -0.019627 -0.595315 0.803253
vn -0.326969 -0.651661 0.684419
vn 0.249736 -0.665502 0.703376
vn 0.292346 0.810876 0.506965
vn -0.013236 0.441831 0.897001
vn -0.33678 0.80627 0.48632
vn -0.658245 0.666008 -0.350924
vn -0.243559 0.879428 -0.409005
vn -0.228897 0.908985 -0.348358
vn -0.036053 0.972668 0.229384
vn -0.184342 0.982758 -0.014297
vn 0.243892 0.969729 0.01194
vn 0.676744 0.734395 0.051777
vn -0.224203 0.966897 -0.121832
vn -0.172168 0.961532 0.21404
vn 0.248 0.755563 0.606317
vn -0.172168 0.961532 0.21404
vn 0.199262 0.974163 0.106307
vn -0.172168 0.961532 0.21404
vn -0.224203 0.966897 -0.121832
vn 0.199262 0.974163 0.106307
vn 0.199262 0.974163 0.106307
vn -0.224203 0.966897 -0.121832
vn -0.243559 0.879428 -0.409005
vn 0.248 0.755563 0.606317
vn 0.292346 0.810876 0.506965
vn -0.33678 0.80627 0.48632
vn 0.248 0.755563 0.606317
vn -0.33678 0.80627 0.48632
vn -0.172168 0.961532 0.21404
vn 0.199262 0.974163 0.106307
vn -0.243559 0.879428 -0.409005
vn -0.304523 0.952434 -0.01164
vn -0.340249 -0.898037 0.278855
vn 0.33939 -0.940616 0.007483
vn 0.249736 -0.665502 0.703376
vn -0.340249 -0.898037 0.278855
vn 0.249736 -0.665502 0.703376
vn -0.326969 -0.651661 0.684419
vn -0.862943 -0.505188 0.010731
vn -0.214042 -0.79056 -0.573761
vn -0.340249 -0.898037 0.278855
vn 0.33939 -0.940616 0.007483
vn 0.26065 -0.745633 -0.613264
vn 0.837559 -0.543601 0.054696
vn 0.11309 -0.130881 -0.984927
vn 0.26065 -0.745633 -0.613264
vn -0.214042 -0.79056 -0.573761
vn 0.33939 -0.940616 0.007483
vn -0.340249 -0.898037 0.278855
vn -0.214042 -0.79056 -0.573761
vn 0.33939 -0.940616 0.007483
vn -0.214042 -0.79056 -0.573761
vn 0.26065 -0.745633 -0.613264
vn 0.249736 -0.665502 0.703376
vn 0.33939 -0.940616 0.007483
vn 0.837559 -0.543601 0.054696
vn -0.862943 -0.505188 0.010731
vn -0.340249 -0.898037 0.278855
vn -0.326969 -0.651661 0.684419
vn -0.707026 0.707188 0.0
vn -0.707026 0.707188 0.0
vn -0.707026 0.707188 0.0
vn -0.707026 0.707188 0.0
vn -0.707026 0.707188 0.0
vn -0.707026 0.707188 0.0
vn -0.707026 0.707188 0.0
vn -0.707026 0.707188 0.0
vn -0.707026 0.707188 0.0
vn -0.707026 0.707188 0.0
vn -0.707026 0.707188 0.0
vn -0.707026 0.707188 -0.0
vn 0.707026 0.707188 0.0
vn 0.707026 0.707188 0.0
vn 0.707026 0.707188 0.0
vn 0.707026 0.707188 0.0
vn 0.707026 0.707188 0.0
vn 0.707026 0.707188 0.0
vn 0.707026 -0.707187 0.0
vn 0.707026 -0.707187 0.0
vn 0.707026 -0.707187 0.0
vn 0.707026 -0.707187 0.0
vn 0.707026 -0.707187 0.0
vn 0.707026 -0.707187 -0.0
vn -0.707026 -0.707187 -0.0
vn -0.707026 -0.707187 -0.0
vn -0.707026 -0.707187 -0.0
vn -0.707026 -0.707187 -0.0
vn -0.707026 -0.707187 -0.0
vn -0.707026 -0.707188 -0.0
vn 0.707026 0.707188 0.0
vn 0.707026 0.707188 -0.0
vn 0.707026 0.707188 0.0
vn 0.707026 0.707188 0.0
vn 0.707026 0.707188 0.0
vn 0.707026 0.707187 0.0
vn 0.0 -0.0 1.0
vn 0.0 -0.0 1.0
vn 0.0 -0.0 1.0
vn 0.0 -0.0 1.0
vn 0.0 -0.0 1.0
vn 0.0 0.0 1.0
vn 0.707026 -0.707188 -0.0
vn 0.707026 -0.707188 -0.0
vn 0.707026 -0.707188 -0.0
vn 0.707026 -0.707188 -0.0
vn 0.707026 -0.707188 -0.0
vn 0.707026 -0.707188 0.0
vn -0.707041 0.707173 -0.0
vn -0.707041 0.707173 -0.0
vn -0.707041 0.707173 -0.0
vn -0.707041 0.707173 -0.0
vn -0.707041 0.707173 -0.0
vn -0.707041 0.707173 -0.0
vn 0.707026 0.707188 0.0
vn 0.707026 0.707188 0.0
vn 0.707026 0.707188 0.0
vn 0.707026 0.707188 0.0
vn 0.707026 0.707188 0.0
vn 0.707026 0.707188 -0.0
vn 0.0 -0.0 1.0
vn 0.0 -0.0 1.0
vn 0.0 -0.0 1.0
vn 0.0 -0.0 1.0
vn 0.0 -0.0 1.0
vn 0.0 0.0 1.0
vn -0.707026 -0.707187 0.0
vn -0.707026 -0.707187 0.0
vn -0.707026 -0.707187 0.0
vn -0.707026 -0.707187 0.0
vn -0.707026 -0.707187 0.0
vn -0.707026 -0.707187 0.0
vn -0.707041 -0.707173 -0.0
vn -0.707041 -0.707173 0.0
vn -0.707041 -0.707173 -0.0
vn -0.707041 -0.707173 -0.0
vn -0.707041 -0.707173 -0.0
vn -0.707041 -0.707173 -0.0
vn 0.707026 -0.707187 0.0
vn 0.707026 -0.707187 0.0
vn 0.707026 -0.707187 0.0
vn 0.707026 -0.707187 0.0
vn 0.707026 -0.707187 0.0
vn 0.707026 -0.707187 -0.0
vn 0.0 -0.0 1.0
vn 0.0 -0.0 1.0
vn 0.0 -0.0 1.0
vn 0.0 -0.0 1.0
vn 0.0 -0.0 1.0
vn 0.0 0.0 1.0
vn 0.0 -0.0 1.0
vn 0.0 -0.0 1.0
vn 0.0 -0.0 1.0
vn 0.0 -0.0 1.0
vn 0.0 -0.0 1.0
vn 0.0 0.0 1.0
vn 0.0 0.0 1.0
vn 0.0 0.0 1.0
vn 0.0 0.0 1.0
vn 0.0 0.0 1.0
vn 0.0 0.0 1.0
vn 0.0 0.0 1.0
vn 0.0 -0.0 1.0
vn 0.0 -0.0 1.0
vn 0.0 -0.0 1.0
vn 0.0 -0.0 1.0
vn 0.0 -0.0 1.0
vn 0.0 0.0 1.0

# body, 43 grouped triangles

usemtl body
o body
g body

f 5/1/1 4/2/2 3/3/3
f 5/4/4 3/5/5 2/6/6
f 5/7/7 2/8/8 1/9/9
f 8/10/10 7/11/11 6/12/12
f 2/13/13 6/14/14 7/15/15
f 2/16/16 7/17/17 9/18/18
f 3/19/19 6/20/20 2/21/21
f 12/22/22 11/23/23 10/24/24
f 15/25/25 14/26/26 11/27/27
f 15/28/28 11/29/29 13/30/30
f 11/31/31 14/32/32 10/33/33
f 16/34/34 14/35/35 15/36/36
f 18/37/37 16/38/38 15/39/39
f 18/40/40 15/41/41 17/42/42
f 8/43/43 18/44/44 19/45/45
f 8/46/46 19/47/47 7/48/48
f 13/49/49 17/50/50 15/51/51
f 9/52/52 7/53/53 19/54/54
f 21/55/55 20/56/56 5/57/57
f 21/58/58 5/59/59 30/60/60
f 20/61/61 4/62/62 5/63/63
f 30/64/64 5/65/65 1/66/66
f 19/79/79 2/80/80 9/81/81
f 13/82/82 11/83/83 17/84/84
f 45/91/91 67/92/92 12/93/93
f 34/94/94 36/95/95 21/96/96
f 34/97/97 21/98/98 30/99/99
f 34/100/100 30/101/101 69/102/102
f 69/103/103 30/104/104 1/105/105
f 69/106/106 1/107/107 2/108/108
f 67/109/109 11/110/110 12/111/111
f 32/112/112 12/113/113 10/114/114
f 20/115/115 31/116/116 3/117/117
f 20/118/118 3/119/119 4/120/120
f 45/121/121 12/122/122 32/123/123
f 21/124/124 36/125/125 31/126/126
f 21/127/127 31/128/128 20/129/129
f 73/130/130 6/131/131 3/132/132
f 18/133/133 8/134/134 6/135/135
f 18/136/136 6/137/137 73/138/138
f 10/139/139 14/140/140 72/141/141
f 18/142/142 72/143/143 14/144/144
f 18/145/145 14/146/146 16/147/147
# eyes, 2 grouped triangles

usemtl eyes
o eyes
g eyes

f 31/205/205 70/206/206 3/207/207
f 10/208/208 71/209/209 32/210/210
# guns, 30 grouped triangles

usemtl guns
o guns
g guns

f 40/211/211 39/212/212 38/213/213
f 40/214/214 38/215/215 37/216/216
f 44/217/217 43/218/218 42/219/219
f 44/220/220 42/221/221 41/222/222
f 47/223/223 42/224/224 43/225/225
f 47/226/226 43/227/227 46/228/228
f 49/229/229 47/230/230 46/231/231
f 49/232/232 46/233/233 48/234/234
f 37/235/235 51/236/236 50/237/237
f 37/238/238 50/239/239 40/240/240
f 55/241/241 54/242/242 53/243/243
f 55/244/244 53/245/245 52/246/246
f 57/247/247 52/248/248 53/249/249
f 57/250/250 53/251/251 56/252/252
f 51/253/253 63/254/254 62/255/255
f 51/256/256 62/257/257 50/258/258
f 56/259/259 53/260/260 54/261/261
f 56/262/262 54/263/263 64/264/264
f 63/265/265 38/266/266 39/267/267
f 63/268/268 39/269/269 62/270/270
f 48/271/271 46/272/272 43/273/273
f 48/274/274 43/275/275 44/276/276
f 41/277/277 49/278/278 48/279/279
f 41/280/280 48/281/281 44/282/282
f 64/283/283 65/284/284 57/285/285
f 64/286/286 57/287/287 56/288/288
f 65/289/289 55/290/290 52/291/291
f 65/292/292 52/293/293 57/294/294
f 50/295/295 62/296/296 39/297/297
f 50/298/298 39/299/299 40/300/300
# muzzles, 6 grouped triangles

usemtl muzzles
o muzzles
g muzzles

f 25/301/301 24/302/302 23/303/303
f 25/304/304 23/305/305 22/306/306
f 29/307/307 28/308/308 27/309/309
f 29/310/310 27/311/311 26/312/312
f 61/313/313 60/314/314 59/315/315
f 61/316/316 59/317/317 58/318/318
# midbody, 25 grouped triangles

usemtl midbody
o midbody
g midbody

f 36/67/67 33/68/68 31/69/69
f 32/70/70 33/71/71 45/72/72
f 45/73/73 33/74/74 35/75/75
f 34/76/76 33/77/77 36/78/78
f 45/85/85 35/86/86 68/87/87
f 45/88/88 68/89/89 67/90/90
f 18/148/148 17/149/149 19/150/150
f 33/151/151 32/152/152 31/153/153
f 35/154/154 33/155/155 34/156/156
f 11/157/157 66/158/158 19/159/159
f 11/160/160 19/161/161 17/162/162
f 2/163/163 19/164/164 69/165/165
f 68/166/166 69/167/167 67/168/168
f 69/169/169 19/170/170 67/171/171
f 67/172/172 19/173/173 66/174/174
f 68/175/175 35/176/176 34/177/177
f 68/178/178 34/179/179 69/180/180
f 67/181/181 66/182/182 11/183/183
f 71/184/184 70/185/185 31/186/186
f 71/187/187 31/188/188 32/189/189
f 10/190/190 72/191/191 71/192/192
f 70/193/193 73/194/194 3/195/195
f 18/196/196 73/197/197 72/198/198
f 70/199/199 71/200/200 72/201/201
f 70/202/202 72/203/203 73/204/204
